<svg width="486" height="93" viewBox="0 0 486 93" fill="none" xmlns="http://www.w3.org/2000/svg">
<path opacity="0.05" d="M21.1653 91L27.8585 70.4361H60.3997L67.0929 91H87.5247L56.4366 0.818179H31.8656L0.733487 91H21.1653ZM32.7022 55.5526L43.7988 21.4261H44.5034L55.6 55.5526H32.7022ZM90.3791 91H108.873V80.1676H109.71C112.308 85.804 117.988 92.1009 128.909 92.1009C144.321 92.1009 156.342 79.9034 156.342 57.2699C156.342 34.0199 143.792 22.483 128.953 22.483C117.636 22.483 112.22 29.2202 109.71 34.7244H109.138V0.818179H90.3791V91ZM108.741 57.1818C108.741 45.1165 113.849 37.4105 122.964 37.4105C132.256 37.4105 137.187 45.4688 137.187 57.1818C137.187 68.983 132.167 77.1733 122.964 77.1733C113.937 77.1733 108.741 69.2472 108.741 57.1818ZM191.419 92.321C211.938 92.321 224.708 78.2741 224.708 57.446C224.708 36.4858 211.938 22.483 191.419 22.483C170.899 22.483 158.129 36.4858 158.129 57.446C158.129 78.2741 170.899 92.321 191.419 92.321ZM191.507 77.7898C182.039 77.7898 177.195 69.1151 177.195 57.3139C177.195 45.5128 182.039 36.794 191.507 36.794C200.798 36.794 205.642 45.5128 205.642 57.3139C205.642 69.1151 200.798 77.7898 191.507 77.7898ZM272.279 62.2017C272.323 71.2727 266.115 76.0284 259.377 76.0284C252.288 76.0284 247.708 71.0526 247.664 63.0824V23.3636H228.906V66.429C228.95 82.2372 238.197 91.8807 251.803 91.8807C261.975 91.8807 269.285 86.6406 272.323 78.7145H273.028V91H291.038V23.3636H272.279V62.2017ZM334.018 23.3636H321.292V7.15909H302.534V23.3636H293.287V37.4545H302.534V72.6818C302.446 85.9361 311.473 92.4972 325.079 91.9247C329.923 91.7486 333.358 90.7798 335.251 90.1634L332.301 76.2045C331.376 76.3807 329.395 76.821 327.633 76.821C323.89 76.821 321.292 75.4119 321.292 70.2159V37.4545H334.018V23.3636ZM402.311 62.2017C402.355 71.2727 396.146 76.0284 389.409 76.0284C382.319 76.0284 377.74 71.0526 377.695 63.0824V23.3636H358.937V66.429C358.981 82.2372 368.228 91.8807 381.835 91.8807C392.007 91.8807 399.316 86.6406 402.355 78.7145H403.059V91H421.069V23.3636H402.311V62.2017ZM484.349 42.6506C482.676 30.1889 472.636 22.483 455.551 22.483C438.246 22.483 426.841 30.4972 426.885 43.5312C426.841 53.6591 433.226 60.2202 446.436 62.8622L458.149 65.196C464.05 66.3849 466.736 68.5426 466.824 71.9332C466.736 75.9403 462.376 78.8026 455.815 78.8026C449.122 78.8026 444.675 75.9403 443.53 70.4361L425.079 71.4048C426.841 84.3509 437.849 92.321 455.771 92.321C473.297 92.321 485.846 83.3821 485.89 70.0398C485.846 60.2642 479.461 54.4077 466.339 51.7216L454.098 49.2557C447.801 47.8906 445.467 45.733 445.511 42.4744C445.467 38.4233 450.047 35.7812 455.859 35.7812C462.376 35.7812 466.251 39.348 467.176 43.7074L484.349 42.6506Z" fill="#4661E9"/>
</svg>
