<svg width="247" height="94" viewBox="0 0 247 94" fill="none" xmlns="http://www.w3.org/2000/svg">
<path opacity="0.05" d="M42.1136 17.75C40.8182 7 32.6818 0.81818 21.9091 0.81818C9.61364 0.81818 0.227273 9.5 0.227273 24.7273C0.227273 39.9091 9.45455 48.6364 21.9091 48.6364C33.8409 48.6364 41.0455 40.7045 42.1136 32.1364L32.1591 32.0909C31.2273 37.0682 27.3182 39.9318 22.0682 39.9318C15 39.9318 10.2045 34.6818 10.2045 24.7273C10.2045 15.0455 14.9318 9.52273 22.1364 9.52273C27.5227 9.52273 31.4091 12.6364 32.1591 17.75H42.1136ZM64.7614 48.6818C75.3523 48.6818 81.9432 41.4318 81.9432 30.6818C81.9432 19.8636 75.3523 12.6364 64.7614 12.6364C54.1705 12.6364 47.5795 19.8636 47.5795 30.6818C47.5795 41.4318 54.1705 48.6818 64.7614 48.6818ZM64.8068 41.1818C59.9205 41.1818 57.4205 36.7045 57.4205 30.6136C57.4205 24.5227 59.9205 20.0227 64.8068 20.0227C69.6023 20.0227 72.1023 24.5227 72.1023 30.6136C72.1023 36.7045 69.6023 41.1818 64.8068 41.1818ZM97.9205 27.8182C97.9432 23.3182 100.625 20.6818 104.534 20.6818C108.42 20.6818 110.761 23.2273 110.739 27.5V48H120.42V25.7727C120.42 17.6364 115.648 12.6364 108.375 12.6364C103.193 12.6364 99.4432 15.1818 97.875 19.25H97.4659V13.0909H88.2386V48H97.9205V27.8182ZM146.619 13.0909H140.051V4.72727H130.369V13.0909H125.597V20.3636H130.369V38.5455C130.324 45.3864 134.983 48.7727 142.006 48.4773C144.506 48.3864 146.278 47.8864 147.256 47.5682L145.733 40.3636C145.256 40.4545 144.233 40.6818 143.324 40.6818C141.392 40.6818 140.051 39.9545 140.051 37.2727V20.3636H146.619V13.0909ZM162.881 48.6591C168.04 48.6591 171.381 46.4091 173.085 43.1591H173.358V48H182.54V24.4545C182.54 16.1364 175.494 12.6364 167.722 12.6364C159.358 12.6364 153.858 16.6364 152.517 23L161.472 23.7273C162.131 21.4091 164.199 19.7045 167.676 19.7045C170.972 19.7045 172.858 21.3636 172.858 24.2273V24.3636C172.858 26.6136 170.472 26.9091 164.403 27.5C157.494 28.1364 151.29 30.4545 151.29 38.25C151.29 45.1591 156.222 48.6591 162.881 48.6591ZM165.653 41.9773C162.676 41.9773 160.54 40.5909 160.54 37.9318C160.54 35.2045 162.79 33.8636 166.199 33.3864C168.312 33.0909 171.767 32.5909 172.926 31.8182V35.5227C172.926 39.1818 169.903 41.9773 165.653 41.9773ZM205.824 48.6818C215.119 48.6818 220.96 43.2273 221.415 35.2045H212.278C211.71 38.9318 209.256 41.0227 205.938 41.0227C201.415 41.0227 198.483 37.2273 198.483 30.5455C198.483 23.9545 201.438 20.1818 205.938 20.1818C209.483 20.1818 211.756 22.5227 212.278 26H221.415C221.006 17.9318 214.892 12.6364 205.778 12.6364C195.188 12.6364 188.642 19.9773 188.642 30.6818C188.642 41.2955 195.074 48.6818 205.824 48.6818ZM246.182 13.0909H239.614V4.72727H229.932V13.0909H225.159V20.3636H229.932V38.5455C229.886 45.3864 234.545 48.7727 241.568 48.4773C244.068 48.3864 245.841 47.8864 246.818 47.5682L245.295 40.3636C244.818 40.4545 243.795 40.6818 242.886 40.6818C240.955 40.6818 239.614 39.9545 239.614 37.2727V20.3636H246.182V13.0909ZM23.25 78.1364C23.2727 82.8182 20.0682 85.2727 16.5909 85.2727C12.9318 85.2727 10.5682 82.7045 10.5455 78.5909V58.0909H0.863636V80.3182C0.886364 88.4773 5.65909 93.4545 12.6818 93.4545C17.9318 93.4545 21.7045 90.75 23.2727 86.6591H23.6364V93H32.9318V58.0909H23.25V78.1364ZM69.7216 68.0455C68.858 61.6136 63.6761 57.6364 54.858 57.6364C45.9261 57.6364 40.0398 61.7727 40.0625 68.5C40.0398 73.7273 43.3352 77.1136 50.1534 78.4773L56.1989 79.6818C59.2443 80.2955 60.6307 81.4091 60.6761 83.1591C60.6307 85.2273 58.3807 86.7045 54.9943 86.7045C51.5398 86.7045 49.2443 85.2273 48.6534 82.3864L39.1307 82.8864C40.0398 89.5682 45.7216 93.6818 54.9716 93.6818C64.017 93.6818 70.4943 89.0682 70.517 82.1818C70.4943 77.1364 67.1989 74.1136 60.4261 72.7273L54.108 71.4545C50.858 70.75 49.6534 69.6364 49.6761 67.9545C49.6534 65.8636 52.017 64.5 55.017 64.5C58.3807 64.5 60.3807 66.3409 60.858 68.5909L69.7216 68.0455Z" fill="#4661E9"/>
</svg>
