<svg width="24" height="24" viewBox="0 0 24 24" fill="none" xmlns="http://www.w3.org/2000/svg">
<g clip-path="url(#clip0_4876_7949)">
<path d="M12 0C5.37256 0 0 5.37256 0 12C0 18.6274 5.37256 24 12 24C18.6274 24 24 18.6274 24 12C24 5.37256 18.6274 0 12 0ZM16.578 6.1111L14.9183 6.11184C13.6168 6.11184 13.3651 6.73031 13.3651 7.63777V9.63879H16.4688L16.4673 12.7729H13.3654V20.8158H10.1281V12.7729H7.42195V9.63879H10.1281V7.32743C10.1281 4.64507 11.767 3.1842 14.1596 3.1842L16.5783 3.18789V6.1111H16.578Z" fill="white"/>
</g>
<defs>
<clipPath id="clip0_4876_7949">
<rect width="24" height="24" fill="white"/>
</clipPath>
</defs>
</svg>
