<svg width="1431" height="201" viewBox="0 0 1431 201" fill="none" xmlns="http://www.w3.org/2000/svg">
<path d="M-10.5 200.5C24.6667 194.167 125.8 170.6 249 127C403 72.5 553 22 644 26C735 30 820.5 64.5 910 88C999.5 111.5 1163.5 155 1244.5 136.5C1325.5 118 1348.5 47.5 1430 1" stroke="#D5DBEC"/>
<path d="M-11 143C35 143.333 152.3 139.8 253.5 123C380 102 404 88.5 526.5 66.5C649 44.5 738 42 808 71C878 100 1020.5 147.5 1108 161.5C1195.5 175.5 1295.5 176.5 1430 113" stroke="#D5DBEC"/>
<path d="M-10.5 134C28.6667 138.667 144.9 140 296.5 108C486 68 539.5 30.5 646 32.5C752.5 34.5 764 47 791 47C818 47 860 47.5 935 89.5C1010 131.5 1064.5 156 1090.5 163.5C1116.5 171 1121.5 174 1180 174.5C1238.5 175 1295.5 172 1335 166C1374.5 160 1396 156 1430 140.5" stroke="#D5DBEC"/>
</svg>
