<svg width="1440" height="201" viewBox="0 0 1440 201" fill="none" xmlns="http://www.w3.org/2000/svg">
<path d="M-0.5 200.5C34.6667 194.167 135.8 170.6 259 127C413 72.5 563 22 654 26C745 30 830.5 64.5 920 88C1009.5 111.5 1173.5 155 1254.5 136.5C1335.5 118 1358.5 47.5 1440 1" stroke="#D5DBEC"/>
<path d="M-1 143C45 143.333 162.3 139.8 263.5 123C390 102 414 88.5 536.5 66.5C659 44.5 748 42 818 71C888 100 1030.5 147.5 1118 161.5C1205.5 175.5 1305.5 176.5 1440 113" stroke="#D5DBEC"/>
<path d="M-0.5 134C38.6667 138.667 154.9 140 306.5 108C496 68 549.5 30.5 656 32.5C762.5 34.5 774 47 801 47C828 47 870 47.5 945 89.5C1020 131.5 1074.5 156 1100.5 163.5C1126.5 171 1131.5 174 1190 174.5C1248.5 175 1305.5 172 1345 166C1384.5 160 1406 156 1440 140.5" stroke="#D5DBEC"/>
</svg>
