<svg width="478" height="168" viewBox="0 0 478 168" fill="none" xmlns="http://www.w3.org/2000/svg">
<path opacity="0.05" d="M80.858 43.8182C80.858 16.2188 63.7216 0.482951 41.3537 0.482951C18.8622 0.482951 1.84943 16.2188 1.84943 43.8182C1.84943 71.294 18.8622 87.1534 41.3537 87.1534C63.7216 87.1534 80.858 71.4176 80.858 43.8182ZM62.7742 43.8182C62.7742 61.696 54.2884 71.3764 41.3537 71.3764C28.3778 71.3764 19.9332 61.696 19.9332 43.8182C19.9332 25.9403 28.3778 16.2599 41.3537 16.2599C54.2884 16.2599 62.7742 25.9403 62.7742 43.8182ZM134.316 59.0597C134.358 67.5455 128.549 71.9943 122.247 71.9943C115.615 71.9943 111.331 67.3395 111.289 59.8835V22.7273H93.7411V63.0142C93.7823 77.8026 102.433 86.8239 115.162 86.8239C124.677 86.8239 131.515 81.9219 134.358 74.5071H135.017V86H151.865V22.7273H134.316V59.0597ZM165.901 86H183.45V50.2031C183.45 42.4176 189.134 37.0625 196.879 37.0625C199.309 37.0625 202.646 37.4744 204.293 38.0099V22.4389C202.728 22.0682 200.545 21.821 198.773 21.821C191.688 21.821 185.88 25.9403 183.573 33.767H182.914V22.7273H165.901V86ZM55.6477 120.77C54.0824 109.112 44.6903 101.903 28.7074 101.903C12.5185 101.903 1.84943 109.401 1.89062 121.594C1.84943 131.068 7.82244 137.206 20.1804 139.678L31.1378 141.861C36.6577 142.973 39.1705 144.991 39.2528 148.163C39.1705 151.912 35.0923 154.589 28.9545 154.589C22.6932 154.589 18.5327 151.912 17.4616 146.763L0.201705 147.669C1.84943 159.78 12.1477 167.236 28.9134 167.236C45.3082 167.236 57.0483 158.874 57.0895 146.392C57.0483 137.247 51.0753 131.768 38.7997 129.256L27.348 126.949C21.4574 125.672 19.2741 123.653 19.3153 120.605C19.2741 116.815 23.5582 114.344 28.9957 114.344C35.0923 114.344 38.7173 117.68 39.5824 121.759L55.6477 120.77ZM96.9748 167.236C112.628 167.236 123.174 159.615 125.645 147.875L109.415 146.804C107.644 151.624 103.113 154.136 97.2631 154.136C88.489 154.136 82.9279 148.328 82.9279 138.895V138.854H126.016V134.034C126.016 112.531 112.999 101.903 96.2745 101.903C77.6552 101.903 65.5856 115.126 65.5856 134.652C65.5856 154.713 77.4904 167.236 96.9748 167.236ZM82.9279 127.979C83.2987 120.77 88.7773 115.003 96.5629 115.003C104.184 115.003 109.456 120.44 109.498 127.979H82.9279ZM137.468 166H155.016V130.203C155.016 122.418 160.701 117.062 168.445 117.062C170.875 117.062 174.212 117.474 175.86 118.01V102.439C174.294 102.068 172.111 101.821 170.34 101.821C163.255 101.821 157.446 105.94 155.14 113.767H154.48V102.727H137.468V166ZM245.847 102.727H227.269L214.169 147.999H213.51L200.37 102.727H181.833L203.953 166H223.726L245.847 102.727ZM254.827 166H272.375V102.727H254.827V166ZM263.642 94.571C268.874 94.571 273.158 90.5753 273.158 85.6733C273.158 80.8125 268.874 76.8168 263.642 76.8168C258.452 76.8168 254.168 80.8125 254.168 85.6733C254.168 90.5753 258.452 94.571 263.642 94.571ZM315.021 167.236C331.869 167.236 342.455 157.349 343.279 142.808H326.719C325.69 149.564 321.241 153.354 315.227 153.354C307.029 153.354 301.715 146.474 301.715 134.364C301.715 122.418 307.07 115.58 315.227 115.58C321.653 115.58 325.772 119.822 326.719 126.125H343.279C342.538 111.501 331.457 101.903 314.938 101.903C295.742 101.903 283.879 115.209 283.879 134.611C283.879 153.848 295.536 167.236 315.021 167.236ZM383.35 167.236C399.003 167.236 409.549 159.615 412.02 147.875L395.79 146.804C394.019 151.624 389.488 154.136 383.638 154.136C374.864 154.136 369.303 148.328 369.303 138.895V138.854H412.391V134.034C412.391 112.531 399.374 101.903 382.65 101.903C364.03 101.903 351.961 115.126 351.961 134.652C351.961 154.713 363.865 167.236 383.35 167.236ZM369.303 127.979C369.674 120.77 375.152 115.003 382.938 115.003C390.559 115.003 395.831 120.44 395.873 127.979H369.303ZM476.488 120.77C474.922 109.112 465.53 101.903 449.547 101.903C433.358 101.903 422.689 109.401 422.73 121.594C422.689 131.068 428.662 137.206 441.02 139.678L451.978 141.861C457.498 142.973 460.01 144.991 460.093 148.163C460.01 151.912 455.932 154.589 449.794 154.589C443.533 154.589 439.373 151.912 438.301 146.763L421.042 147.669C422.689 159.78 432.988 167.236 449.753 167.236C466.148 167.236 477.888 158.874 477.929 146.392C477.888 137.247 471.915 131.768 459.64 129.256L448.188 126.949C442.297 125.672 440.114 123.653 440.155 120.605C440.114 116.815 444.398 114.344 449.836 114.344C455.932 114.344 459.557 117.68 460.422 121.759L476.488 120.77Z" fill="#4661E9"/>
</svg>
