<svg width="391" height="148" viewBox="0 0 391 148" fill="none" xmlns="http://www.w3.org/2000/svg">
<path opacity="0.05" d="M19.8764 67H33.6634L46.3722 23.2543H46.8949L59.6364 67H73.4233L92.5682 0.0909071H77.1151L66.0398 46.679H65.4517L53.2656 0.0909071H40.0341L27.8153 46.581H27.2599L16.1847 0.0909071H0.731534L19.8764 67ZM113.796 37.9886C113.828 31.5199 117.782 27.7301 123.466 27.7301C129.118 27.7301 132.451 31.3565 132.418 37.5312V67H146.336V35.0483C146.368 23.2869 139.442 16.1648 128.988 16.1648C121.375 16.1648 116.279 19.7585 113.992 25.6719H113.404V0.0909071H99.8782V67H113.796V37.9886ZM171.598 67.9474C179.014 67.9474 183.817 64.7131 186.267 60.0412H186.659V67H199.858V33.1534C199.858 21.196 189.73 16.1648 178.557 16.1648C166.534 16.1648 158.628 21.9148 156.7 31.0625L169.572 32.108C170.52 28.7756 173.493 26.3253 178.491 26.3253C183.229 26.3253 185.94 28.7102 185.94 32.8267V33.0227C185.94 36.2571 182.51 36.6818 173.787 37.5312C163.855 38.446 154.936 41.7784 154.936 52.9844C154.936 62.9162 162.026 67.9474 171.598 67.9474ZM175.584 58.3423C171.304 58.3423 168.233 56.3494 168.233 52.527C168.233 48.6065 171.467 46.679 176.368 45.9929C179.406 45.5682 184.372 44.8494 186.038 43.7386V49.0639C186.038 54.3239 181.693 58.3423 175.584 58.3423ZM237.347 16.8182H227.906V4.79545H213.988V16.8182H207.127V27.2727H213.988V53.4091C213.923 63.2429 220.62 68.1108 230.715 67.6861C234.309 67.5554 236.857 66.8366 238.262 66.3793L236.073 56.0227C235.387 56.1534 233.917 56.4801 232.61 56.4801C229.833 56.4801 227.906 55.4347 227.906 51.5795V27.2727H237.347V16.8182ZM14.4531 147H29.1548L37.7798 115.44H38.4006L47.0256 147H61.7599L75.3835 96.8182H61.3352L53.6903 130.338H53.2656L45.0327 96.8182H31.2131L23.1108 130.534H22.6534L14.8778 96.8182H0.796875L14.4531 147ZM104.419 147.98C116.834 147.98 125.198 141.936 127.158 132.625L114.286 131.776C112.881 135.598 109.287 137.591 104.648 137.591C97.6893 137.591 93.2788 132.984 93.2788 125.503V125.47H127.452V121.648C127.452 104.594 117.128 96.1648 103.864 96.1648C89.0969 96.1648 79.5245 106.652 79.5245 122.138C79.5245 138.048 88.9663 147.98 104.419 147.98ZM93.2788 116.845C93.5728 111.128 97.918 106.554 104.093 106.554C110.137 106.554 114.319 110.866 114.351 116.845H93.2788ZM167.8 114.003H137.286V125.045H167.8V114.003ZM202.333 147.98C217.557 147.98 227.032 137.558 227.032 122.105C227.032 106.554 217.557 96.1648 202.333 96.1648C187.108 96.1648 177.634 106.554 177.634 122.105C177.634 137.558 187.108 147.98 202.333 147.98ZM202.398 137.199C195.374 137.199 191.78 130.763 191.78 122.007C191.78 113.251 195.374 106.783 202.398 106.783C209.292 106.783 212.885 113.251 212.885 122.007C212.885 130.763 209.292 137.199 202.398 137.199ZM263.067 96.8182H253.103V93.4531C253.103 90.0554 254.475 88.0625 258.559 88.0625C260.225 88.0625 261.924 88.4219 263.034 88.7812L265.485 78.3267C263.753 77.804 259.931 76.9545 255.651 76.9545C246.209 76.9545 239.185 82.2798 239.185 93.1918V96.8182H232.096V107.273H239.185V147H253.103V107.273H263.067V96.8182ZM298.555 96.8182H288.591V93.4531C288.591 90.0554 289.963 88.0625 294.047 88.0625C295.713 88.0625 297.412 88.4219 298.523 88.7812L300.973 78.3267C299.241 77.804 295.419 76.9545 291.139 76.9545C281.697 76.9545 274.673 82.2798 274.673 93.1918V96.8182H267.584V107.273H274.673V147H288.591V107.273H298.555V96.8182ZM328.13 147.98C340.545 147.98 348.909 141.936 350.869 132.625L337.997 131.776C336.592 135.598 332.998 137.591 328.359 137.591C321.4 137.591 316.99 132.984 316.99 125.503V125.47H351.163V121.648C351.163 104.594 340.839 96.1648 327.575 96.1648C312.808 96.1648 303.235 106.652 303.235 122.138C303.235 138.048 312.677 147.98 328.13 147.98ZM316.99 116.845C317.284 111.128 321.629 106.554 327.804 106.554C333.848 106.554 338.029 110.866 338.062 116.845H316.99ZM360.245 147H374.163V118.609C374.163 112.435 378.672 108.188 384.814 108.188C386.741 108.188 389.387 108.514 390.694 108.939V96.5895C389.453 96.2955 387.721 96.0994 386.316 96.0994C380.697 96.0994 376.091 99.3665 374.261 105.574H373.738V96.8182H360.245V147Z" fill="#4661E9"/>
</svg>
