<svg width="100" height="32" viewBox="0 0 100 32" fill="none" xmlns="http://www.w3.org/2000/svg">
<g clip-path="url(#clip0_4876_7933)">
<path d="M71.9347 31.1285C71.9278 31.1009 71.9285 31.0557 71.9134 31.0494C71.7528 30.9867 71.6756 30.8355 71.5702 30.7163C71.5511 30.6847 71.5413 30.6484 71.542 30.6115C71.5351 30.5337 71.5307 30.4552 71.5307 30.3768C71.5307 27.7474 71.5307 25.1175 71.5307 22.4872C71.5307 22.4665 71.5307 22.4458 71.5307 22.4245C71.5137 22.1566 71.6562 21.9796 71.8576 21.829C71.9831 21.7368 72.0935 21.6308 72.2108 21.5304C72.3282 21.43 72.4348 21.339 72.5478 21.2443C72.6313 21.1851 72.7099 21.1195 72.7831 21.0479C72.8847 20.9305 73.034 20.8728 73.1369 20.7617C73.2229 20.6714 73.3208 20.593 73.4155 20.5108C73.462 20.4712 73.5147 20.4399 73.5623 20.401C73.7035 20.2861 73.8434 20.1694 73.984 20.054C74.0976 19.9605 74.2174 19.8739 74.3228 19.7729C74.5964 19.51 74.9151 19.3023 75.1881 19.0381C75.3136 18.9183 75.4654 18.8254 75.5947 18.7062C75.8406 18.4791 76.1242 18.2971 76.3583 18.0549C76.4486 17.9614 76.5779 17.9068 76.672 17.8159C76.9117 17.5825 77.1972 17.4043 77.4331 17.1652C77.5234 17.073 77.6458 17.0134 77.7468 16.933C77.824 16.8734 77.8949 16.8076 77.9664 16.7398C78.0875 16.6227 78.2197 16.5176 78.3611 16.4261C78.4803 16.3527 78.5738 16.2378 78.6798 16.145C78.7859 16.0521 78.8775 15.9705 78.9785 15.8865C79.1216 15.7666 79.2671 15.6499 79.4102 15.5313C79.594 15.3788 79.7703 15.2176 79.9611 15.0745C80.2121 14.8863 80.4298 14.6491 80.6977 14.4734C80.8709 14.3599 81.0114 14.1967 81.1714 14.0612C81.3647 13.8968 81.5617 13.7356 81.7594 13.5762C81.9947 13.3879 82.2331 13.1997 82.4684 13.0115C82.542 12.9549 82.6105 12.8919 82.6729 12.8232C82.8129 12.6614 82.9954 12.6174 83.1969 12.6206C83.2907 12.6223 83.3843 12.6295 83.4773 12.6419C83.5154 12.6523 83.5513 12.6693 83.5834 12.6921C83.8576 12.8452 84.0659 13.0811 84.3093 13.2725C84.5064 13.4268 84.6858 13.5994 84.8885 13.75C85.0566 13.8755 85.206 14.0217 85.3634 14.1591C85.4626 14.2457 85.5774 14.3134 85.6734 14.4025C85.9194 14.6297 86.2074 14.806 86.4395 15.0494C86.526 15.1296 86.6176 15.204 86.7137 15.2722L87.114 15.5991L87.4428 15.8708C87.6204 16.0176 87.7998 16.1625 87.9749 16.31C88.0696 16.3903 88.1738 16.3815 88.2704 16.2924C88.3903 16.182 88.5214 16.081 88.6469 15.9787C88.7856 15.862 88.9242 15.7447 89.0635 15.6286C89.1212 15.5796 89.1796 15.5319 89.2386 15.4849C89.3365 15.4077 89.4369 15.3337 89.5329 15.2546C89.6289 15.1756 89.7211 15.0902 89.8158 15.0086C89.956 14.8894 90.0967 14.7706 90.2381 14.6523C90.2927 14.6071 90.3511 14.565 90.4063 14.5192C90.5443 14.4063 90.683 14.2921 90.8204 14.1779C90.9208 14.0938 91.0187 14.0066 91.1197 13.9232C91.2615 13.8058 91.4027 13.6872 91.5495 13.5756C91.7898 13.393 92.0263 13.1991 92.2503 13.0027C92.5264 12.758 92.832 12.5472 93.0918 12.2824C93.1733 12.1989 93.29 12.1487 93.3779 12.0609C93.5067 11.9365 93.644 11.8212 93.7889 11.7158C93.9601 11.5872 94.1026 11.4177 94.2758 11.301C94.5267 11.1329 94.7307 10.9177 94.966 10.7363C95.2012 10.555 95.4397 10.3668 95.6718 10.1767C95.7973 10.0725 95.9096 9.94763 96.0401 9.84849C96.205 9.72111 96.3632 9.58518 96.5139 9.44128C96.6431 9.32081 96.7987 9.2292 96.9305 9.11124C97.1815 8.88912 97.4632 8.70904 97.6947 8.46496C97.7172 8.44493 97.7352 8.42037 97.7475 8.39291C97.7598 8.36545 97.7662 8.33569 97.7663 8.30559C97.77 8.00253 97.7788 7.69947 97.7788 7.39641C97.7788 5.80227 97.7788 4.20771 97.7788 2.61273C97.7905 2.52667 97.7756 2.43912 97.7362 2.36175C97.6452 2.43704 97.5592 2.50606 97.4751 2.57759C97.371 2.66606 97.2687 2.7583 97.1614 2.84551C97.0761 2.91704 96.9857 2.98355 96.8991 3.05445C96.7868 3.14732 96.6764 3.24269 96.5647 3.33743C96.4674 3.42026 96.3714 3.50434 96.2729 3.58841C96.1349 3.70261 95.9943 3.81367 95.8576 3.92849C95.638 4.11673 95.4221 4.30496 95.2006 4.48881C95.1379 4.54277 95.0551 4.5779 94.9892 4.63061C94.9007 4.70088 94.8216 4.7812 94.7382 4.85398C94.6322 4.94371 94.523 5.02904 94.4169 5.11751C94.326 5.19343 94.2375 5.27312 94.1465 5.34841C94.0398 5.43626 93.9507 5.54104 93.8246 5.60943C93.7261 5.66214 93.6489 5.75375 93.5611 5.82716C93.4532 5.91751 93.344 6.00598 93.2361 6.09634C93.147 6.17163 93.0604 6.25006 92.9707 6.3241C92.8646 6.4132 92.7554 6.49853 92.6488 6.587C92.5421 6.67547 92.4223 6.77524 92.3093 6.87312C92.1964 6.971 92.0935 7.05696 91.9849 7.14794C91.8456 7.26339 91.707 7.37947 91.5664 7.49304C91.2985 7.71077 91.0124 7.90967 90.7658 8.14936C90.5581 8.35077 90.3103 8.49885 90.1101 8.70967C89.9601 8.86653 89.77 8.98575 89.5994 9.12316C89.5147 9.19092 89.4325 9.26245 89.3484 9.33273C89.243 9.42308 89.1388 9.51532 89.0347 9.60379C88.9437 9.67845 88.8464 9.7481 88.758 9.82214C88.6914 9.87547 88.6281 9.93194 88.5628 9.98716C88.4317 10.0988 88.3012 10.2112 88.1688 10.3216C88.0615 10.4107 87.9517 10.4973 87.8431 10.5864C87.7685 10.6491 87.695 10.7119 87.6204 10.7746L87.3776 10.9767C87.2464 11.0871 87.1165 11.1988 86.9848 11.3086C86.927 11.3569 86.8662 11.4027 86.8078 11.4504C86.6736 11.5596 86.538 11.6668 86.4069 11.7798C86.2394 11.9241 86.0536 12.0483 85.9093 12.219C85.7976 12.2378 85.7261 12.3395 85.6069 12.3545C85.4646 12.373 85.3206 12.373 85.1783 12.3545C85.0748 12.3414 85.0133 12.2736 84.9431 12.229C84.8042 12.1258 84.6717 12.0141 84.5465 11.8946C84.4543 11.8174 84.3583 11.7453 84.2641 11.67C84.1305 11.5621 83.9975 11.4529 83.8651 11.3437C83.7603 11.2565 83.6574 11.1668 83.5514 11.0796C83.4654 11.008 83.3769 10.9396 83.2916 10.8675C83.1843 10.7765 83.0795 10.6792 82.9716 10.5914C82.8819 10.5167 82.7884 10.4477 82.698 10.3743C82.6353 10.3203 82.5688 10.2632 82.5035 10.2086C82.3674 10.0932 82.2318 9.97838 82.0951 9.86418C81.9915 9.77759 81.8805 9.69916 81.7813 9.6063C81.5699 9.40363 81.3183 9.25053 81.1118 9.04159C80.9868 8.93006 80.8559 8.82534 80.7197 8.72787C80.5904 8.62183 80.4643 8.51139 80.3357 8.40347C80.2673 8.34575 80.1964 8.29053 80.1274 8.23281C80.0019 8.12614 79.8764 8.01759 79.7465 7.91155C79.6888 7.86324 79.6254 7.82057 79.5683 7.77226C79.4315 7.65681 79.2979 7.53885 79.1617 7.42402C79.0551 7.33492 78.9459 7.24896 78.8386 7.16049C78.7639 7.09775 78.6911 7.035 78.6165 6.97226C78.5318 6.90261 78.4452 6.8361 78.3617 6.7652C78.2362 6.65602 78.1107 6.54371 77.9815 6.43453C77.9187 6.38245 77.856 6.33665 77.7932 6.28583C77.6615 6.17602 77.531 6.06371 77.3998 5.9539C77.3371 5.90183 77.2744 5.85351 77.2116 5.80143C77.0767 5.68912 76.9481 5.56865 76.8069 5.46449C76.5885 5.30386 76.4028 5.10371 76.187 4.94434C75.9843 4.79375 75.803 4.62183 75.6135 4.45806C75.515 4.37336 75.397 4.30936 75.3048 4.21837C75.0689 3.98496 74.7733 3.82183 74.5518 3.57336C74.4641 3.49045 74.3699 3.4147 74.2701 3.34685C74.14 3.24185 74.011 3.13728 73.883 3.03312C73.8202 2.98167 73.7644 2.92081 73.6947 2.87626C73.5285 2.76457 73.3961 2.61273 73.2323 2.49979C73.1696 2.45524 73.1068 2.40567 73.0177 2.33477C73.0121 2.43328 73.0058 2.49288 73.0058 2.55249C73.0058 3.41043 73.0058 4.26794 73.0058 5.12504C73.0058 6.11328 73.0102 7.10151 73.0058 8.08912C73.0023 8.14037 73.013 8.19161 73.0368 8.23713C73.0606 8.28265 73.0966 8.32068 73.1407 8.347C73.2712 8.43673 73.3842 8.55155 73.5059 8.65383C73.6125 8.74418 73.7242 8.82889 73.8296 8.92112C74.0806 9.14198 74.3605 9.32708 74.5983 9.56489C74.6905 9.65649 74.8085 9.72112 74.912 9.80394C75.0965 9.95579 75.2759 10.1177 75.4616 10.2657C75.6022 10.3799 75.7509 10.4841 75.8933 10.5958C75.9749 10.6585 76.0508 10.7301 76.1293 10.7966C76.2798 10.9221 76.4306 11.0476 76.5816 11.173C76.7958 11.3508 77.0102 11.528 77.2248 11.7045C77.3277 11.7898 77.4318 11.8727 77.5347 11.9555C77.6094 12.0182 77.6816 12.081 77.7575 12.1437C77.8667 12.2316 77.9796 12.3156 78.0875 12.4047C78.2431 12.5302 78.3925 12.6695 78.5512 12.7937C78.6513 12.8583 78.7398 12.9393 78.8129 13.0334C78.9383 13.2273 79.0074 13.4388 78.9522 13.6609C78.9235 13.7742 78.8702 13.8798 78.7961 13.9703C78.7221 14.0607 78.629 14.1337 78.5236 14.1842C78.4903 14.199 78.4546 14.2073 78.4182 14.2087C78.3611 14.2143 78.3021 14.2087 78.2456 14.2168C77.9997 14.2557 77.8008 14.1384 77.6389 13.9872C77.5084 13.8654 77.3653 13.76 77.2329 13.6421C77.1005 13.5241 76.95 13.4093 76.8082 13.2932C76.599 13.1196 76.3884 12.9456 76.1763 12.7712C76.0238 12.6457 75.8751 12.512 75.7202 12.3878C75.4874 12.1996 75.2489 12.0226 75.0161 11.8363C74.8907 11.7371 74.7771 11.6273 74.6566 11.5225C74.6064 11.4799 74.5512 11.4435 74.4998 11.4021C74.4044 11.3261 74.3115 11.2483 74.2168 11.1712L73.8943 10.902C73.7487 10.7809 73.6025 10.6617 73.4551 10.5393C73.2932 10.4013 73.1413 10.2463 72.9694 10.1283C72.8599 10.0589 72.757 9.97946 72.662 9.89116C72.4568 9.68912 72.1989 9.55108 72.0038 9.33524C71.9216 9.24426 71.7954 9.19657 71.7126 9.09743C71.607 8.98354 71.5442 8.83649 71.5351 8.68143C71.5351 8.62936 71.5351 8.57665 71.5351 8.52457V0.79563C71.5366 0.769509 71.5366 0.743318 71.5351 0.717198C71.5056 0.487551 71.626 0.313747 71.7729 0.168806C71.8613 0.0815903 71.9736 -0.0100176 72.123 0.00566872C72.1492 0.0059654 72.1754 0.00470829 72.2014 0.00190401C72.5327 -0.0112725 72.6563 0.0514726 72.9148 0.28112C73.0867 0.432963 73.2511 0.594845 73.4538 0.714688C73.5793 0.79061 73.6784 0.92112 73.7989 1.01398C74.0825 1.23108 74.3429 1.4739 74.6234 1.69539C74.8631 1.88363 75.1034 2.07688 75.3293 2.28206C75.5175 2.45147 75.7227 2.59579 75.9052 2.76394C76.0878 2.9321 76.3187 3.08143 76.5063 3.259C76.694 3.43657 76.9111 3.57273 77.0911 3.7503C77.2712 3.92787 77.4745 4.04081 77.6458 4.21273C77.8849 4.45116 78.1785 4.6281 78.4144 4.87469C78.5324 5.00018 78.6842 5.08928 78.8191 5.1972C79.0262 5.36222 79.2433 5.51783 79.4359 5.69916C79.6285 5.88049 79.8482 6.00849 80.0264 6.19234C80.2045 6.37618 80.4091 6.49414 80.5911 6.66167C80.8345 6.89006 81.093 7.10088 81.349 7.3161C81.45 7.40081 81.5705 7.46481 81.6627 7.55704C81.9332 7.82183 82.2632 8.01508 82.523 8.29367C82.6114 8.38904 82.7332 8.45241 82.8367 8.53461C82.9101 8.59296 82.9772 8.6601 83.0494 8.71971C83.1649 8.81717 83.2809 8.91338 83.3976 9.00834C83.4817 9.07736 83.5683 9.14387 83.6486 9.21351C83.766 9.31077 83.882 9.4099 83.9987 9.50779C84.0847 9.57994 84.1725 9.65022 84.2585 9.72363C84.315 9.77194 84.3677 9.82528 84.4254 9.87234C84.5647 9.98716 84.7065 10.0995 84.8471 10.2137L85.0221 10.3555L85.3873 10.6566C85.4896 10.5757 85.5931 10.4954 85.6947 10.4138C85.8334 10.3015 85.9727 10.1892 86.1101 10.075C86.2149 9.98716 86.3159 9.89493 86.4238 9.80708C86.5531 9.69979 86.6849 9.59563 86.8135 9.48834C87.0155 9.32018 87.2088 9.14073 87.4196 8.98638C87.6304 8.83202 87.8187 8.64065 88.0238 8.475C88.2428 8.29869 88.463 8.123 88.6789 7.94481C88.8125 7.835 88.9405 7.71767 89.0748 7.60787C89.344 7.38888 89.6157 7.17367 89.8855 6.95594C89.962 6.8932 90.0348 6.82606 90.1107 6.76206C90.2645 6.63281 90.4207 6.50543 90.5738 6.37492C90.8248 6.16034 91.072 5.94324 91.3223 5.72928C91.3713 5.68404 91.4257 5.64505 91.4842 5.6132C91.6097 5.55045 91.6863 5.44128 91.7911 5.36222C91.8958 5.28316 91.9831 5.19971 92.0791 5.11877C92.2152 5.00394 92.3514 4.88849 92.4882 4.77492C92.5308 4.73979 92.5779 4.71218 92.6205 4.67453C92.7743 4.54904 92.9305 4.42355 93.078 4.28739C93.1752 4.19892 93.2913 4.13618 93.3842 4.03641C93.5027 3.91632 93.6326 3.8079 93.7719 3.71265C94.0229 3.5332 94.2249 3.29539 94.4897 3.13037C94.6215 3.04881 94.7238 2.92018 94.8455 2.81665C95.114 2.59516 95.3882 2.37743 95.6568 2.15783C95.7823 2.05367 95.8977 1.93634 96.0257 1.83532C96.1983 1.69916 96.3545 1.54104 96.5277 1.4099C96.7297 1.25681 96.9136 1.08677 97.1062 0.924257C97.2354 0.815081 97.3848 0.727865 97.5065 0.605512C97.6797 0.431708 97.8974 0.311237 98.0712 0.137433C98.1126 0.091003 98.1641 0.0547361 98.2218 0.031449C98.2795 0.00816195 98.3417 -0.00151866 98.4038 0.00315892C98.4874 0.00789193 98.5711 0.00789193 98.6547 0.00315892C98.8731 0.00315892 99.0155 0.12112 99.1479 0.284257C99.2003 0.352442 99.2317 0.434427 99.2383 0.520179C99.2516 0.579922 99.2686 0.638801 99.2891 0.696492V8.82198C99.2747 8.84771 99.2471 8.87343 99.2464 8.89979C99.2414 9.09806 99.1253 9.22292 98.981 9.339C98.8938 9.40802 98.8242 9.499 98.7394 9.57116C98.6372 9.65775 98.5261 9.73304 98.4213 9.81587C98.363 9.8623 98.3103 9.915 98.2544 9.96394C98.1647 10.0417 98.0756 10.1202 97.9827 10.1942C97.8503 10.2996 97.7016 10.3887 97.5837 10.5079C97.4074 10.6861 97.1978 10.8217 97.0108 10.9854C96.9098 11.0739 96.805 11.158 96.7015 11.2439C96.5703 11.3531 96.431 11.4529 96.3106 11.5734C96.2064 11.6775 96.0696 11.7371 95.9736 11.8545C95.9046 11.9392 95.8011 11.995 95.7145 12.0659C95.6518 12.1186 95.589 12.1751 95.5263 12.2278C95.4334 12.3031 95.338 12.3734 95.2452 12.4499C95.1379 12.5396 95.0356 12.6381 94.9277 12.7254C94.8022 12.832 94.6717 12.9356 94.5424 13.0391C94.4085 13.1362 94.2803 13.2409 94.1584 13.3528C93.9896 13.526 93.782 13.6477 93.6082 13.8146C93.5052 13.9131 93.3873 13.9959 93.2769 14.0869C93.1438 14.1961 93.0127 14.3078 92.8784 14.4157C92.7881 14.4879 92.6801 14.5412 92.6036 14.6272C92.4022 14.848 92.1525 15.0099 91.926 15.1994C91.786 15.3167 91.6499 15.4397 91.51 15.5583C91.4196 15.6342 91.3217 15.7045 91.2339 15.7798C91.1216 15.8727 91.0111 15.968 90.9013 16.0628C90.833 16.13 90.7605 16.1929 90.6842 16.251C90.3987 16.4392 90.1603 16.6865 89.8823 16.8866C89.6684 17.041 89.4852 17.2411 89.2731 17.4043C89.1332 17.5122 89.0002 17.6295 88.8646 17.7431C88.758 17.8322 88.6582 17.9313 88.5452 18.011C88.4447 18.0925 88.3175 18.1339 88.1882 18.1271C88.1111 18.1202 88.032 18.1239 87.9536 18.1214C87.8105 18.1164 87.7026 18.0311 87.5972 17.9508C87.5049 17.8811 87.4177 17.8046 87.3293 17.7299C87.2207 17.6396 87.1134 17.5479 87.0055 17.4563L86.7457 17.2392C86.6384 17.1489 86.5318 17.0579 86.4238 16.9682C86.2958 16.8615 86.1668 16.7559 86.0367 16.6513C85.9112 16.5484 85.765 16.4631 85.6602 16.342C85.472 16.1299 85.2279 15.9793 85.0152 15.7955C84.7642 15.5784 84.5076 15.365 84.2447 15.1599C84.091 15.04 83.9448 14.9089 83.7954 14.7834L83.2307 14.3109C83.2111 14.3389 83.1889 14.365 83.1642 14.3887C83.077 14.4565 82.9848 14.5186 82.8969 14.5864C82.8091 14.6541 82.7288 14.7207 82.646 14.7897C82.5349 14.8825 82.4263 14.9779 82.3147 15.0714C82.1892 15.1781 82.0386 15.2672 81.9344 15.3933C81.8717 15.4661 81.7889 15.4755 81.728 15.5414C81.6046 15.6624 81.4732 15.775 81.3346 15.8783C81.2718 15.9291 81.2091 15.9749 81.1463 16.0264C81.0165 16.1362 80.8897 16.2491 80.7605 16.3589C80.6977 16.411 80.6312 16.4568 80.5722 16.5089C80.4361 16.6231 80.3018 16.7392 80.1669 16.854C80.1042 16.9086 80.0364 16.9606 79.9724 17.0152C79.8469 17.12 79.7258 17.2261 79.6016 17.329C79.5175 17.3992 79.4309 17.467 79.3462 17.5373C79.2721 17.6 79.1994 17.6628 79.1247 17.7255C79.0174 17.814 78.9089 17.8999 78.8022 17.989C78.6692 18.1001 78.5387 18.213 78.4056 18.3241C78.3429 18.3756 78.2801 18.422 78.2174 18.4741C78.0919 18.5807 77.9664 18.6912 77.8409 18.7978C77.7575 18.8687 77.6696 18.9346 77.5849 19.0036C77.5002 19.0727 77.4249 19.1348 77.3465 19.2019C77.2386 19.2929 77.1332 19.3864 77.0246 19.4767C76.9393 19.5476 76.8502 19.6141 76.7649 19.685C76.6557 19.776 76.5496 19.8701 76.4417 19.9611C76.3074 20.0747 76.1725 20.187 76.0376 20.2999L75.8645 20.4436C75.7722 20.5183 75.6762 20.5911 75.5878 20.6676C75.4761 20.7605 75.3675 20.8559 75.2558 20.9506C75.1749 21.0184 75.0914 21.083 75.0099 21.1508C74.9013 21.2399 74.7934 21.3308 74.6855 21.4212C74.5945 21.4965 74.5035 21.5705 74.4138 21.6465C74.3059 21.7374 74.2005 21.8309 74.0925 21.9213C74.006 21.9928 73.9156 22.0587 73.8296 22.1302C73.7217 22.2193 73.6163 22.3116 73.5109 22.4038C73.4055 22.496 73.2951 22.6259 73.1664 22.6987C73.0378 22.7715 73.0064 22.8675 73.0071 23.003C73.0096 24.5298 73.0096 26.0566 73.0071 27.5834C73.0071 27.9235 73.0071 28.2629 73.0146 28.603C73.0146 28.657 73.0265 28.7103 73.034 28.7749C73.2223 28.6212 73.3867 28.4819 73.5548 28.3445C73.5943 28.3125 73.6427 28.2905 73.6803 28.2573C73.8271 28.1318 73.9765 28.0063 74.1145 27.867C74.1691 27.813 74.2444 27.7992 74.2952 27.7302C74.358 27.6424 74.4646 27.5847 74.5512 27.5125C74.6598 27.4215 74.7664 27.3274 74.8756 27.2377C75.018 27.1203 75.163 27.0061 75.3048 26.8888C75.3587 26.8449 75.4083 26.7959 75.4598 26.7495C75.5643 26.6425 75.6767 26.5435 75.7961 26.4534C76.0565 26.2821 76.2667 26.0518 76.5164 25.8673C76.714 25.7211 76.8966 25.5536 77.0861 25.3961C77.2756 25.2386 77.4783 25.0748 77.6728 24.9123C77.8673 24.7498 78.0536 24.5879 78.2456 24.4273C78.3837 24.3119 78.5249 24.2002 78.6629 24.0847C78.7752 23.9906 78.8831 23.8908 78.9954 23.7961C79.1354 23.6775 79.2778 23.5621 79.419 23.446C79.466 23.4071 79.5156 23.3713 79.5614 23.3312C79.6723 23.222 79.7891 23.1191 79.9115 23.0231C80.2052 22.8185 80.4562 22.5632 80.7372 22.3442C80.854 22.2538 80.9525 22.1403 81.0679 22.0474C81.339 21.8297 81.622 21.6257 81.8874 21.4017C82.0856 21.2348 82.2726 21.0554 82.4784 20.8998C82.6039 20.8032 82.7093 20.6783 82.8367 20.5861C83.002 20.4633 83.1607 20.332 83.3123 20.1927C83.5407 19.9837 83.7961 19.8049 84.0282 19.5978C84.1537 19.4855 84.3131 19.4052 84.4279 19.2841C84.5917 19.1097 84.7925 18.9823 84.965 18.821C85.0166 18.7702 85.0821 18.7357 85.1532 18.7219C85.4099 18.6899 85.6684 18.6679 85.888 18.8562C86.0298 18.9779 86.1754 19.094 86.3191 19.2132C86.4169 19.2941 86.5142 19.3751 86.6114 19.4573C86.7426 19.5683 86.8769 19.6763 87.0023 19.7936C87.1391 19.9191 87.2941 20.0245 87.4284 20.1569C87.6166 20.3414 87.8356 20.4945 88.0408 20.6626C88.1776 20.7749 88.3288 20.8759 88.4549 20.9952C88.7021 21.2286 88.9788 21.4237 89.2304 21.6502C89.3691 21.7757 89.5147 21.8924 89.6577 22.0123C89.8635 22.1854 90.0681 22.3599 90.277 22.5287C90.4521 22.6698 90.6158 22.8223 90.8009 22.9534C90.9666 23.0708 91.104 23.2283 91.2696 23.3519C91.4855 23.5125 91.6681 23.7133 91.8864 23.872C92.0853 24.017 92.2541 24.1977 92.4511 24.3445C92.6224 24.47 92.773 24.6256 92.9374 24.763C93.2003 24.9814 93.467 25.1947 93.7311 25.4118C93.8698 25.526 94.0053 25.6439 94.1434 25.7588C94.309 25.8968 94.4778 26.0317 94.6453 26.171C94.8235 26.3228 94.9929 26.4847 95.1768 26.6303C95.3148 26.7401 95.4535 26.8505 95.5947 26.9566C95.7647 27.0821 95.9153 27.2421 96.0828 27.3776C96.271 27.5301 96.4518 27.6913 96.6369 27.8513C96.6864 27.8934 96.7398 27.9316 96.7931 27.9693C96.9449 28.0766 97.0535 28.2353 97.2204 28.3257C97.2744 28.3555 97.3245 28.3917 97.3697 28.4336C97.4914 28.5447 97.6094 28.6595 97.7531 28.7956C97.7631 28.7084 97.7738 28.6538 97.7744 28.5992C97.7801 28.2799 97.7863 27.9611 97.7863 27.6424C97.7863 26.1106 97.7863 24.5787 97.7863 23.0469C97.7863 23.0099 97.7863 22.9735 97.7863 22.9371C97.7891 22.9091 97.7848 22.8808 97.7738 22.8548C97.7629 22.8288 97.7456 22.806 97.7236 22.7884C97.5925 22.6786 97.4726 22.5512 97.3471 22.4408C97.174 22.2965 96.9813 22.1735 96.8176 22.0198C96.5992 21.8146 96.3532 21.6433 96.133 21.4432C96.0289 21.3484 95.9222 21.2549 95.8155 21.1658C95.7346 21.0974 95.6511 21.0322 95.5689 20.965C95.4579 20.8728 95.3481 20.7768 95.2358 20.6877C95.0262 20.517 94.8323 20.3276 94.6114 20.1682C94.4307 20.0377 94.2808 19.8708 94.0951 19.7409C93.8905 19.5978 93.7142 19.414 93.5228 19.2502C93.3791 19.1279 93.2317 19.0099 93.0836 18.8894C92.9895 18.8116 92.8954 18.7332 92.8006 18.6535L92.4003 18.3134C92.3136 18.2517 92.2337 18.1811 92.1619 18.1026C92.0878 18.0047 91.9943 17.9087 91.9975 17.7694C91.9975 17.6496 91.9975 17.5291 92.0019 17.4093C92.0329 17.2854 92.091 17.1699 92.1719 17.0711C92.3501 16.9374 92.5327 16.8201 92.7755 16.8515C92.9234 16.8722 93.0636 16.9303 93.1827 17.0203C93.2674 17.0937 93.3553 17.1639 93.4431 17.2336C93.5787 17.3415 93.7311 17.4325 93.8478 17.558C94.0492 17.7757 94.3071 17.9225 94.5192 18.1227C94.6447 18.2425 94.7884 18.3404 94.9202 18.4508C95.0751 18.5801 95.215 18.7269 95.3788 18.848C95.5275 18.9591 95.6656 19.0839 95.8074 19.2038C95.9191 19.2985 96.0307 19.392 96.1405 19.4912C96.2503 19.5903 96.3426 19.6794 96.4492 19.7647C96.5904 19.8789 96.7542 19.9705 96.8797 20.0992C97.1156 20.3395 97.4055 20.5139 97.6427 20.7517C97.7462 20.8552 97.8692 20.9399 97.9827 21.0328C98.1195 21.1457 98.2557 21.2593 98.3931 21.3723C98.4445 21.4143 98.4998 21.4513 98.55 21.4977C98.693 21.6232 98.8254 21.7544 98.976 21.8698C99.1266 21.9853 99.2609 22.1509 99.2483 22.3756C99.2483 22.4333 99.2483 22.491 99.2483 22.5481C99.2483 25.1416 99.2483 27.735 99.2483 30.3285C99.2483 30.4226 99.2433 30.5167 99.2389 30.6108C99.2423 30.6422 99.2364 30.6738 99.222 30.7018C99.1159 30.8236 99.0463 30.9792 98.8856 31.0501C98.8599 31.0614 98.848 31.1053 98.8298 31.1341H98.2651C98.2614 31.1109 98.25 31.0895 98.2327 31.0734C98.2154 31.0574 98.1932 31.0476 98.1697 31.0457C98.1389 31.043 98.1091 31.0333 98.0825 31.0174C97.9457 30.9026 97.8121 30.784 97.6765 30.6673C97.541 30.5506 97.4067 30.4327 97.27 30.3185C97.2198 30.277 97.1601 30.2476 97.1106 30.2055C96.9851 30.0976 96.8596 29.9853 96.7341 29.8774C96.6626 29.8146 96.5835 29.7625 96.5126 29.7004C96.3645 29.5712 96.2246 29.4325 96.0734 29.3083C95.8413 29.12 95.5997 28.9399 95.3656 28.7517C95.1705 28.5942 94.9967 28.4135 94.7903 28.2667C94.5838 28.1199 94.3931 27.9297 94.1948 27.761C94.0605 27.6459 93.9252 27.5328 93.7889 27.4215C93.6213 27.2847 93.435 27.1661 93.2869 27.0093C93.0886 26.7959 92.8301 26.6598 92.6306 26.4502C92.5251 26.3501 92.4136 26.2564 92.2968 26.1697C92.1713 26.0675 92.0496 25.9633 91.9203 25.8629C91.8262 25.7876 91.7101 25.7324 91.6361 25.6414C91.4522 25.4143 91.1969 25.2769 90.9854 25.0811C90.8512 24.9564 90.7091 24.8405 90.56 24.7341C90.3567 24.5898 90.1911 24.3959 89.9846 24.2498C89.7782 24.1036 89.6 23.9028 89.3873 23.7509C89.1871 23.6085 89.0221 23.4228 88.8226 23.2778C88.6049 23.1203 88.4103 22.9308 88.2045 22.7564C88.0728 22.6454 87.9385 22.5374 87.8074 22.4264C87.7026 22.3379 87.6022 22.2457 87.4968 22.1578C87.3612 22.0449 87.2232 21.9345 87.0852 21.824C86.998 21.7537 86.907 21.6879 86.8216 21.6145C86.7244 21.5316 86.6334 21.44 86.5368 21.3572C86.4402 21.2744 86.3316 21.1966 86.2312 21.1137C86.1308 21.0309 86.0505 20.9525 85.9576 20.8747C85.8196 20.7592 85.6759 20.6501 85.541 20.5308C85.44 20.4411 85.3427 20.4386 85.2499 20.5308C85.157 20.6231 85.0679 20.6952 84.9744 20.7737C84.9117 20.8257 84.8445 20.8716 84.7805 20.9217C84.5923 21.0698 84.4248 21.2436 84.2296 21.3873C84.01 21.5492 83.818 21.7481 83.6022 21.915C83.4422 22.0367 83.301 22.1817 83.146 22.3103C82.9089 22.5073 82.666 22.6974 82.4282 22.8938C82.3059 22.9948 82.1929 23.1072 82.07 23.2076C81.8572 23.3832 81.6307 23.5439 81.4274 23.7308C81.2593 23.8858 81.0748 24.022 80.9073 24.1801C80.7241 24.3526 80.5107 24.4938 80.3225 24.6676C80.0653 24.9029 79.7829 25.1112 79.5125 25.3321C79.3656 25.4513 79.2213 25.5724 79.0732 25.6929C78.9829 25.7682 78.8894 25.8403 78.8009 25.9181C78.688 26.0173 78.5882 26.1359 78.4646 26.2181C78.1986 26.3956 77.9783 26.6259 77.7261 26.8192C77.59 26.9233 77.4607 27.0369 77.3283 27.1467C77.2162 27.2404 77.1045 27.3345 76.9932 27.429C76.9198 27.4918 76.8483 27.5545 76.7749 27.6173C76.6676 27.7076 76.5591 27.7961 76.4499 27.8852C76.3545 27.963 76.2572 28.0389 76.1631 28.118C76.0552 28.2083 75.9504 28.3025 75.8431 28.3934C75.7609 28.4625 75.6762 28.5277 75.5922 28.5961C75.4811 28.689 75.3719 28.7843 75.2602 28.8753C75.1705 28.9506 75.0776 29.0221 74.9879 29.0968C74.8787 29.1878 74.7727 29.2819 74.6635 29.3729C74.5826 29.4413 74.4985 29.5059 74.4169 29.5737C74.3084 29.6646 74.2023 29.7575 74.0944 29.8479C73.9689 29.9545 73.8434 30.0593 73.7136 30.1654C73.6452 30.2218 73.578 30.2802 73.5096 30.3367L73.12 30.6598C73.0468 30.7265 72.9701 30.7893 72.8903 30.848C72.7812 30.9196 72.709 31.0469 72.5634 31.0683C72.5509 31.0683 72.544 31.1109 72.534 31.131L71.9347 31.1285Z" fill="#E7E8FF"/>
<path d="M99.2408 1.39221C99.2343 1.30646 99.2029 1.22447 99.1505 1.15629C99.0181 0.993152 98.8756 0.875191 98.6573 0.875191C98.5737 0.879924 98.4899 0.879924 98.4063 0.875191C98.3443 0.870514 98.282 0.880194 98.2243 0.903481C98.1667 0.926768 98.1151 0.963035 98.0738 1.00947C97.8981 1.18327 97.6803 1.30374 97.509 1.47754C97.3873 1.5999 97.238 1.68711 97.1087 1.79629C96.9161 1.9588 96.7323 2.12884 96.5302 2.28194C96.3577 2.41307 96.2014 2.57119 96.0283 2.70735C95.9028 2.80837 95.7854 2.9257 95.6593 3.02986C95.3908 3.25135 95.1166 3.46907 94.848 3.68868C94.7263 3.78907 94.624 3.9177 94.4923 4.00241C94.2275 4.16742 94.0254 4.40523 93.7745 4.58468C93.6351 4.67993 93.5053 4.78835 93.3867 4.90844C93.2938 5.00633 93.1784 5.06907 93.0805 5.15942C92.933 5.2937 92.7768 5.41919 92.6231 5.54656C92.5804 5.58233 92.5334 5.60931 92.4907 5.64695C92.3539 5.76052 92.2178 5.87597 92.0816 5.9908C91.9856 6.07174 91.8934 6.15707 91.7936 6.23425C91.6938 6.31142 91.6104 6.4275 91.4868 6.48523C91.4282 6.51707 91.3738 6.55607 91.3249 6.60131C91.0739 6.81527 90.8267 7.03236 90.5763 7.24695C90.4232 7.37746 90.267 7.50483 90.1133 7.63409C90.0374 7.69683 89.9646 7.76523 89.888 7.82797C89.6182 8.0457 89.3465 8.26091 89.0774 8.47989C88.9431 8.5897 88.8151 8.7064 88.6814 8.81683C88.4643 8.99503 88.2454 9.17072 88.0264 9.34703C87.8212 9.51268 87.6349 9.69966 87.4221 9.8584C87.2094 10.0171 87.0181 10.1947 86.816 10.3604C86.6905 10.4677 86.5556 10.5718 86.4264 10.6791C86.3216 10.767 86.2206 10.8592 86.1127 10.947C85.9752 11.0612 85.836 11.1735 85.6973 11.2859C85.5956 11.3674 85.4921 11.4477 85.3898 11.5287L85.0247 11.2275L84.8496 11.0857C84.709 10.9715 84.5672 10.8592 84.4279 10.7444C84.3702 10.6973 84.3175 10.644 84.261 10.5957C84.1751 10.5222 84.0872 10.452 84.0013 10.3798C83.8846 10.2819 83.7685 10.1828 83.6512 10.0855C83.5677 10.0159 83.4811 9.94938 83.4002 9.88036C83.2835 9.78499 83.1674 9.68878 83.0519 9.59174C82.9798 9.52899 82.9127 9.46625 82.8392 9.4035C82.7357 9.3213 82.614 9.25793 82.5255 9.16256C82.2658 8.88397 81.9357 8.69072 81.6653 8.42593C81.5718 8.3337 81.4513 8.2697 81.3516 8.18499C81.0962 7.96978 80.837 7.75895 80.5936 7.53056C80.4148 7.36303 80.2033 7.2388 80.0289 7.06123C79.8545 6.88366 79.6261 6.7475 79.4385 6.56805C79.2509 6.3886 79.0287 6.23111 78.8217 6.06609C78.6868 5.95817 78.5349 5.86719 78.417 5.74358C78.181 5.49699 77.8874 5.32005 77.6483 5.08099C77.4771 4.9097 77.2662 4.79048 77.0937 4.61919C76.9211 4.4479 76.6959 4.30546 76.5089 4.1279C76.3219 3.95033 76.0985 3.81417 75.9078 3.63284C75.7171 3.4515 75.5181 3.31911 75.3318 3.15095C75.1059 2.94578 74.8656 2.75315 74.6259 2.56429C74.3454 2.3428 74.085 2.09997 73.8014 1.88288C73.681 1.79001 73.585 1.6595 73.4563 1.58358C73.2537 1.46374 73.0893 1.30186 72.9174 1.15001C72.6589 0.920368 72.5352 0.857623 72.204 0.870172C72.1779 0.873494 72.1517 0.874962 72.1255 0.874564C71.9762 0.858877 71.8639 0.950485 71.7754 1.0377C71.6286 1.18264 71.5081 1.35645 71.5376 1.58609C71.5392 1.61221 71.5392 1.6384 71.5376 1.66452V9.39974C71.5376 9.45181 71.5376 9.50452 71.5376 9.5566C71.5469 9.71163 71.6096 9.85864 71.7152 9.9726C71.798 10.0717 71.9241 10.1194 72.0063 10.2104C72.2014 10.4262 72.4593 10.5643 72.6645 10.7663C72.7595 10.8546 72.8624 10.934 72.972 11.0035C73.1464 11.1215 73.2957 11.2764 73.4576 11.4139C73.6019 11.5393 73.7481 11.656 73.8968 11.7771L74.2193 12.0463C74.3128 12.1235 74.4076 12.2013 74.5023 12.2772C74.5531 12.3186 74.609 12.355 74.6592 12.3977C74.7796 12.5006 74.8951 12.6104 75.0187 12.7114C75.2515 12.8997 75.4899 13.0766 75.7227 13.2629C75.8777 13.3884 76.0264 13.5189 76.1789 13.6457C76.388 13.821 76.5986 13.9952 76.8107 14.1684C76.9525 14.2844 77.0987 14.3955 77.2349 14.5166C77.371 14.6377 77.5109 14.7406 77.6414 14.8623C77.8033 15.0135 78.0022 15.1309 78.2482 15.092C78.3047 15.0832 78.3636 15.092 78.4207 15.0838C78.4571 15.0825 78.4929 15.0742 78.5261 15.0593C78.6316 15.0089 78.7246 14.9359 78.7987 14.8454C78.8728 14.755 78.926 14.6494 78.9547 14.536C79.0099 14.3127 78.9428 14.1012 78.8154 13.9086C78.7424 13.8143 78.6539 13.7331 78.5538 13.6683C78.395 13.5428 78.2457 13.4085 78.0901 13.2799C77.9822 13.1908 77.8692 13.1067 77.76 13.0189C77.6841 12.9561 77.612 12.8934 77.5373 12.8306C77.4344 12.7453 77.3302 12.6625 77.2273 12.5797C77.0127 12.4027 76.7984 12.2256 76.5842 12.0482C76.4332 11.9227 76.2824 11.7972 76.1318 11.6717C76.0534 11.6052 75.9774 11.5343 75.8959 11.471C75.7534 11.3593 75.6047 11.2551 75.4642 11.1409C75.2759 10.9897 75.099 10.831 74.9145 10.6791C74.8129 10.5963 74.6949 10.5317 74.6008 10.44C74.363 10.2022 74.0832 10.0171 73.8322 9.79629C73.7268 9.70405 73.6151 9.61934 73.5084 9.52899C73.3867 9.42672 73.2738 9.31189 73.1432 9.22217C73.0991 9.19585 73.0632 9.15782 73.0393 9.11229C73.0155 9.06677 73.0048 9.01554 73.0083 8.96428C73.0083 7.97668 73.0083 6.98844 73.0083 6.00021C73.0083 5.14227 73.0083 4.28476 73.0083 3.42766C73.0083 3.36492 73.0146 3.30844 73.0203 3.20993C73.1119 3.28084 73.1715 3.33041 73.2349 3.37495C73.3986 3.48915 73.531 3.64099 73.6973 3.75143C73.7638 3.79597 73.8228 3.85684 73.8855 3.90829C74.0135 4.01412 74.1426 4.11869 74.2727 4.22201C74.3725 4.28987 74.4667 4.36561 74.5544 4.44852C74.7784 4.6995 75.0739 4.86013 75.3073 5.09354C75.3996 5.18452 75.5175 5.24852 75.616 5.33323C75.8043 5.49699 75.9869 5.66891 76.1895 5.81887C76.4054 5.97887 76.5911 6.17903 76.8094 6.33966C76.9506 6.44382 77.0792 6.56429 77.2141 6.6766C77.2769 6.72868 77.3396 6.77699 77.4024 6.82907C77.5335 6.93887 77.664 7.05119 77.7958 7.16099C77.8585 7.21181 77.9213 7.25762 77.984 7.3097C78.1095 7.41887 78.235 7.53119 78.3643 7.64036C78.4477 7.71127 78.5343 7.77778 78.619 7.84742C78.6937 7.91017 78.7665 7.97291 78.8411 8.03566C78.9484 8.12413 79.0576 8.21009 79.1643 8.29919C79.3004 8.41401 79.4341 8.53197 79.5709 8.64742C79.628 8.69574 79.6913 8.7384 79.749 8.78672C79.8745 8.89276 80 9.00131 80.1299 9.10797C80.1989 9.1657 80.2698 9.22091 80.3382 9.27864C80.4637 9.38656 80.593 9.49699 80.7222 9.60303C80.8585 9.7005 80.9894 9.80523 81.1144 9.91676C81.3208 10.1263 81.5724 10.2794 81.7839 10.4815C81.8805 10.5743 81.9916 10.6528 82.0976 10.7393C82.2344 10.8535 82.3699 10.9684 82.5061 11.0838C82.5688 11.1384 82.6316 11.1955 82.7006 11.2495C82.7909 11.3229 82.8844 11.3919 82.9741 11.4659C83.0821 11.5563 83.1869 11.6542 83.2941 11.7426C83.3795 11.8148 83.4679 11.8832 83.5539 11.9547C83.6587 12.0419 83.7616 12.1317 83.8676 12.2189C84 12.328 84.133 12.4372 84.2667 12.5451C84.3602 12.6204 84.4549 12.6926 84.549 12.7698C84.6744 12.8891 84.8069 13.0007 84.9456 13.1042C85.0159 13.15 85.0774 13.2178 85.1809 13.2297C85.3232 13.2479 85.4672 13.2479 85.6094 13.2297C85.7287 13.2146 85.7977 13.113 85.9119 13.0942C86.0562 12.9235 86.2419 12.7993 86.4094 12.655C86.5406 12.542 86.6761 12.4347 86.8104 12.3255C86.8687 12.2779 86.9296 12.232 86.9873 12.1837C87.1191 12.0739 87.249 11.9622 87.3801 11.8518L87.6229 11.6498C87.6976 11.587 87.771 11.5243 87.8457 11.4615C87.9542 11.3724 88.064 11.2859 88.1713 11.1961C88.3037 11.0863 88.4342 10.974 88.5654 10.8623C88.6281 10.8071 88.6908 10.7506 88.7605 10.6973C88.8515 10.6233 88.9487 10.5536 89.0372 10.479C89.1445 10.3905 89.2487 10.2982 89.3509 10.2079C89.4338 10.1376 89.5159 10.0661 89.6019 9.99832C89.7726 9.86029 89.9627 9.7417 90.1127 9.58421C90.3128 9.37401 90.5607 9.22593 90.7683 9.02452C91.0149 8.78483 91.301 8.5853 91.569 8.36821C91.7095 8.25464 91.8482 8.13856 91.9875 8.02248C92.096 7.93213 92.2033 7.83989 92.3119 7.74829C92.4204 7.65668 92.5371 7.55629 92.6513 7.46217C92.7655 7.36805 92.8672 7.28836 92.9732 7.19927C93.0629 7.1246 93.1495 7.0468 93.2386 6.9715C93.3465 6.88115 93.4557 6.79268 93.5636 6.70233C93.6515 6.62891 93.7287 6.53731 93.8272 6.4846C93.9527 6.41621 94.0424 6.31142 94.149 6.22358C94.24 6.14766 94.3285 6.0686 94.4195 5.99268C94.5255 5.90421 94.6347 5.81887 94.7407 5.72915C94.8267 5.65636 94.9058 5.57605 94.9917 5.50578C95.0545 5.45307 95.1385 5.41793 95.2032 5.36397C95.4247 5.1795 95.6424 4.9875 95.8601 4.80366C95.9969 4.68884 96.1374 4.57778 96.2755 4.46358C96.374 4.38201 96.47 4.29793 96.5672 4.2126C96.6789 4.11786 96.7894 4.02437 96.9017 3.92962C96.9883 3.85872 97.0786 3.79221 97.1639 3.72068C97.2694 3.63284 97.3716 3.54123 97.4777 3.45276C97.5618 3.38123 97.6477 3.31221 97.7387 3.23692C97.7781 3.31428 97.793 3.40184 97.7814 3.4879C97.7814 5.08204 97.7814 6.6766 97.7814 8.27158C97.7814 8.57464 97.7726 8.8777 97.7688 9.18076C97.7688 9.21086 97.7624 9.24061 97.75 9.26807C97.7377 9.29554 97.7197 9.32009 97.6973 9.34013C97.4658 9.58421 97.1821 9.76429 96.933 9.9864C96.8013 10.1044 96.6457 10.196 96.5164 10.3164C96.3657 10.4603 96.2076 10.5963 96.0427 10.7237C95.9122 10.8228 95.8018 10.9477 95.6744 11.0518C95.4422 11.24 95.2069 11.4283 94.9685 11.6115C94.7301 11.7947 94.5293 12.0074 94.2783 12.1762C94.1039 12.2929 93.9646 12.4623 93.7914 12.591C93.6466 12.6963 93.5093 12.8116 93.3804 12.936C93.2926 13.0239 93.1759 13.0741 93.0943 13.1575C92.8345 13.4223 92.5296 13.6331 92.2529 13.8779C92.0289 14.0761 91.7923 14.2681 91.552 14.4507C91.4052 14.5624 91.264 14.681 91.1222 14.7983C91.0212 14.8818 90.9233 14.969 90.8229 15.0524C90.6855 15.1673 90.5469 15.2815 90.4088 15.3944C90.3536 15.4402 90.2952 15.4816 90.2407 15.5274C90.0997 15.6454 89.9589 15.7642 89.8184 15.8838C89.723 15.9654 89.6301 16.0501 89.5354 16.1298C89.4407 16.2095 89.339 16.2829 89.2411 16.36C89.1821 16.4071 89.1238 16.4548 89.0661 16.5037C88.9268 16.6198 88.7881 16.7371 88.6494 16.8538C88.5239 16.9586 88.3985 17.0597 88.273 17.1676C88.1763 17.2567 88.0722 17.2655 87.9774 17.1851C87.8024 17.0358 87.6229 16.8909 87.4454 16.7459L87.1166 16.4742L86.7163 16.1473C86.6203 16.079 86.5287 16.0046 86.4421 15.9246C86.2099 15.6811 85.9219 15.5048 85.6766 15.2777C85.5799 15.1886 85.4651 15.1208 85.3628 15.0342C85.2054 14.8968 85.056 14.7513 84.8879 14.6251C84.689 14.4746 84.5058 14.302 84.3087 14.1477C84.0653 13.9594 83.857 13.7204 83.5828 13.5673C83.5508 13.5442 83.5149 13.5271 83.4767 13.5171C83.3851 13.5029 83.2927 13.4939 83.2 13.4901C82.9986 13.4869 82.816 13.5309 82.6761 13.6928C82.6137 13.7615 82.5452 13.8244 82.4716 13.881C82.2363 14.0692 81.9978 14.2575 81.7625 14.4457C81.5649 14.6057 81.3679 14.7663 81.1746 14.9313C81.0146 15.0669 80.8741 15.23 80.7009 15.3436C80.433 15.5193 80.2178 15.7539 79.9643 15.9447C79.776 16.0877 79.5972 16.249 79.4134 16.4015C79.2703 16.52 79.1247 16.6368 78.9817 16.7566C78.8807 16.8407 78.7815 16.9279 78.683 17.0151C78.5845 17.1023 78.4835 17.2228 78.3643 17.2962C78.2228 17.3877 78.0907 17.4928 77.9696 17.6099C77.8981 17.6758 77.8272 17.7436 77.75 17.8032C77.6465 17.8829 77.5241 17.9431 77.4363 18.0353C77.2003 18.2744 76.9149 18.4526 76.6752 18.6854C76.581 18.777 76.4518 18.8316 76.3614 18.9251C76.1274 19.1673 75.8438 19.3492 75.5978 19.5757C75.4686 19.6956 75.3149 19.7884 75.1912 19.9083C74.9183 20.1724 74.5996 20.3801 74.326 20.643C74.2206 20.744 74.1007 20.8313 73.9872 20.9235C73.8466 21.0396 73.7067 21.1563 73.5655 21.2711C73.5178 21.3094 73.4651 21.3414 73.4187 21.3809C73.324 21.4625 73.2261 21.5409 73.1401 21.6319C73.0347 21.7429 72.8891 21.8007 72.7862 21.918C72.7131 21.9896 72.6344 22.0553 72.5509 22.1144C72.438 22.2091 72.3263 22.3026 72.214 22.4005C72.1017 22.4984 71.9843 22.6069 71.8607 22.6992C71.66 22.8491 71.5169 23.0267 71.5338 23.2946C71.5338 23.3153 71.5338 23.3367 71.5338 23.3574C71.5338 25.9876 71.5338 28.6175 71.5338 31.2469C71.5338 31.3254 71.5382 31.4038 71.5451 31.4816C71.5444 31.5185 71.5542 31.5548 71.5734 31.5864C71.6788 31.7056 71.756 31.8543 71.9166 31.9196C71.9316 31.9252 71.931 31.971 71.9379 31.9986H72.534C72.544 31.976 72.5509 31.9359 72.5635 31.9327C72.709 31.912 72.7812 31.7847 72.8904 31.7125C72.9703 31.654 73.047 31.5911 73.12 31.5243L73.5097 31.2011C73.5781 31.1447 73.6452 31.0863 73.7136 31.0298C73.8391 30.9238 73.9646 30.819 74.0945 30.7124C74.2024 30.622 74.3084 30.5291 74.417 30.4382C74.4985 30.3704 74.5826 30.3058 74.6636 30.2374C74.7727 30.1464 74.8788 30.0491 74.988 29.9613C75.0777 29.8866 75.1705 29.8151 75.2603 29.7398C75.3719 29.6476 75.4811 29.5516 75.5922 29.4606C75.6744 29.3922 75.7591 29.3269 75.8432 29.2579C75.9505 29.1669 76.0552 29.0728 76.1632 28.9825C76.2573 28.9034 76.3514 28.8275 76.4499 28.7497C76.5591 28.6606 76.6674 28.5713 76.7749 28.4818C76.8483 28.419 76.9199 28.3563 76.9933 28.2935C77.1041 28.199 77.2158 28.1049 77.3283 28.0112C77.4607 27.9007 77.59 27.7878 77.7261 27.6836C77.9771 27.4904 78.1986 27.2601 78.4647 27.0826C78.5901 27.0004 78.688 26.8818 78.801 26.7826C78.8894 26.7048 78.9829 26.6327 79.0733 26.5574C79.2195 26.4369 79.3638 26.3158 79.5125 26.1966C79.7829 25.9757 80.0653 25.7674 80.3225 25.5321C80.5108 25.3596 80.7241 25.2184 80.9073 25.0446C81.0748 24.8865 81.2593 24.7503 81.4275 24.5953C81.6301 24.4071 81.8573 24.2477 82.07 24.072C82.1955 23.971 82.3059 23.8587 82.4283 23.7583C82.6661 23.5619 82.9089 23.3718 83.1461 23.1748C83.301 23.0462 83.4422 22.9012 83.6022 22.7795C83.8206 22.6126 84.0126 22.4137 84.2297 22.2518C84.4248 22.1081 84.5911 21.9343 84.7806 21.7862C84.8433 21.736 84.9117 21.6902 84.9745 21.6382C85.068 21.5597 85.1627 21.4807 85.2499 21.3953C85.3371 21.31 85.4381 21.3081 85.541 21.3953C85.676 21.5146 85.8196 21.6237 85.9577 21.7392C86.0505 21.817 86.1384 21.9004 86.2312 21.9776C86.3241 22.0548 86.4377 22.1376 86.5368 22.2217C86.636 22.3058 86.725 22.3961 86.8217 22.4789C86.907 22.5517 86.998 22.6182 87.0852 22.6885C87.2232 22.7989 87.3613 22.9094 87.4968 23.0223C87.6022 23.1102 87.7026 23.2024 87.8074 23.2909C87.9385 23.4019 88.0728 23.5098 88.2046 23.6209C88.4104 23.7953 88.6049 23.9848 88.8226 24.1423C89.024 24.2873 89.189 24.473 89.3873 24.6154C89.6 24.7673 89.7732 24.9643 89.9847 25.1142C90.1961 25.2642 90.3567 25.4537 90.56 25.5986C90.7092 25.705 90.8513 25.8209 90.9854 25.9456C91.195 26.1414 91.4523 26.2788 91.6361 26.5059C91.7101 26.5969 91.8243 26.6521 91.9203 26.7274C92.0458 26.8278 92.1713 26.932 92.2968 27.0342C92.4138 27.1207 92.5253 27.2144 92.6306 27.3147C92.8301 27.5243 93.0887 27.6604 93.2869 27.8738C93.4325 28.0306 93.6188 28.1492 93.7889 28.286C93.9248 28.3977 94.0602 28.5108 94.1948 28.6255C94.3931 28.7942 94.5788 28.9812 94.7903 29.1312C95.0017 29.2811 95.1705 29.4587 95.3657 29.6162C95.5997 29.8044 95.8413 29.9833 96.0734 30.1727C96.2253 30.2982 96.3652 30.4356 96.5127 30.5649C96.5836 30.6276 96.6626 30.6804 96.7341 30.7418C96.8596 30.8498 96.9851 30.9621 97.1106 31.07C97.1602 31.112 97.2198 31.1415 97.27 31.1829C97.4068 31.2971 97.5417 31.4151 97.6766 31.5318C97.8115 31.6485 97.9457 31.7671 98.0825 31.8819C98.1091 31.8978 98.1389 31.9075 98.1697 31.9102C98.1923 31.9135 98.2132 31.924 98.2292 31.9402C98.2453 31.9564 98.2557 31.9773 98.2588 31.9999H98.8236C98.8417 31.971 98.8537 31.9271 98.8794 31.9158C99.04 31.8449 99.1097 31.6893 99.2157 31.5676C99.2301 31.5395 99.236 31.5079 99.2327 31.4766C99.237 31.3825 99.2421 31.2884 99.2421 31.1942C99.2421 28.6008 99.2421 26.0073 99.2421 23.4138C99.2421 23.3567 99.2377 23.299 99.2421 23.2413C99.2546 23.0167 99.1297 22.8586 98.9697 22.7356C98.8097 22.6126 98.6868 22.4846 98.5437 22.3635C98.4935 22.3202 98.4383 22.2832 98.3869 22.2411C98.2494 22.1282 98.1133 22.0146 97.9765 21.9017C97.8629 21.8082 97.7399 21.7241 97.6364 21.6206C97.3992 21.3828 97.1094 21.2084 96.8734 20.9674C96.7479 20.8419 96.5842 20.7478 96.443 20.6336C96.3363 20.5477 96.2378 20.4504 96.1343 20.36C96.0308 20.2697 95.9128 20.1674 95.8011 20.0727C95.6593 19.9528 95.5213 19.8273 95.3726 19.7169C95.2088 19.5958 95.0689 19.449 94.9139 19.3197C94.7821 19.2093 94.6385 19.1114 94.513 18.9916C94.3009 18.7889 94.043 18.6427 93.8416 18.4269C93.7249 18.3014 93.5724 18.2104 93.4369 18.1025C93.349 18.0322 93.2612 17.9626 93.1765 17.8891C93.0574 17.799 92.9172 17.7407 92.7693 17.7197C92.5265 17.6884 92.3439 17.8057 92.1657 17.94C92.0847 18.0388 92.0267 18.1543 91.9956 18.2782C91.9912 18.398 91.9956 18.5185 91.9912 18.6383C91.9912 18.7776 92.0816 18.8736 92.1556 18.9715C92.2275 19.05 92.3074 19.1206 92.3941 19.1823L92.7944 19.5224C92.8885 19.6021 92.9826 19.6799 93.0774 19.7583C93.2229 19.8788 93.3704 19.9967 93.5166 20.1191C93.7048 20.2829 93.8843 20.4667 94.0888 20.6098C94.277 20.7397 94.4245 20.9066 94.6052 21.0371C94.8261 21.1964 95.0199 21.3859 95.2295 21.5566C95.3418 21.6476 95.4516 21.7417 95.5627 21.8339C95.6449 21.9011 95.7283 21.9663 95.8093 22.0347C95.9159 22.1257 96.0226 22.2173 96.1268 22.3114C96.347 22.5128 96.593 22.6835 96.8113 22.8887C96.9751 23.0424 97.1677 23.1654 97.3409 23.3097C97.472 23.4201 97.5919 23.5475 97.7174 23.6573C97.7394 23.6749 97.7566 23.6977 97.7676 23.7237C97.7785 23.7497 97.7828 23.778 97.7801 23.806C97.7801 23.8424 97.7801 23.8788 97.7801 23.9158C97.7801 25.4476 97.7801 26.9794 97.7801 28.5113C97.7801 28.83 97.7738 29.1487 97.7682 29.4681C97.7682 29.5227 97.7569 29.5773 97.7468 29.6645C97.6032 29.5284 97.4852 29.4135 97.3635 29.3025C97.3183 29.2606 97.2681 29.2243 97.2141 29.1945C97.0472 29.1042 96.9387 28.9436 96.7868 28.8382C96.7335 28.8005 96.6802 28.7622 96.6306 28.7202C96.4424 28.5627 96.2654 28.3989 96.0766 28.2465C95.909 28.1109 95.7585 27.9535 95.5884 27.8255C95.4472 27.7194 95.3086 27.609 95.1705 27.4992C94.9867 27.3542 94.8173 27.1917 94.6391 27.0399C94.4747 26.9006 94.3059 26.7657 94.1371 26.6276C93.9991 26.5128 93.8636 26.3949 93.7249 26.2807C93.4607 26.0636 93.1941 25.8502 92.9312 25.6313C92.7668 25.4945 92.6174 25.3401 92.4449 25.2134C92.2466 25.0665 92.0778 24.8858 91.8802 24.7409C91.6618 24.5822 91.4792 24.3814 91.2634 24.2207C91.0978 24.0953 90.9603 23.9396 90.7947 23.8223C90.6065 23.6912 90.4458 23.5387 90.2708 23.3975C90.0618 23.2287 89.8573 23.0543 89.6515 22.8811C89.5084 22.7613 89.3629 22.644 89.2242 22.5191C88.9732 22.292 88.6959 22.0975 88.4487 21.864C88.3232 21.7448 88.1713 21.6438 88.0345 21.5315C87.8294 21.3633 87.6098 21.2102 87.4221 21.0251C87.2879 20.8934 87.1329 20.7898 86.9961 20.6625C86.8706 20.5451 86.7363 20.4372 86.6052 20.3262C86.5079 20.244 86.4107 20.163 86.3128 20.0821C86.1691 19.9629 86.0236 19.8468 85.8818 19.7251C85.6621 19.5368 85.4036 19.5588 85.147 19.5908C85.0759 19.6046 85.0104 19.6391 84.9588 19.6899C84.7862 19.8512 84.5823 19.9786 84.4217 20.153C84.3068 20.2747 84.1481 20.355 84.022 20.4667C83.7898 20.6738 83.5345 20.8526 83.3061 21.0615C83.1545 21.2008 82.9957 21.3322 82.8305 21.4549C82.705 21.5491 82.5983 21.6739 82.4722 21.7687C82.2664 21.9268 82.0794 22.1062 81.8811 22.2706C81.6157 22.4946 81.3327 22.6986 81.0617 22.9163C80.9462 23.0091 80.8477 23.1227 80.731 23.2131C80.4493 23.432 80.1989 23.6874 79.9053 23.892C79.7829 23.988 79.666 24.0909 79.5552 24.2C79.5094 24.2402 79.4598 24.276 79.4127 24.3149C79.2716 24.4309 79.1291 24.5464 78.9892 24.665C78.8769 24.7597 78.769 24.8589 78.6567 24.9536C78.5186 25.0691 78.3774 25.1807 78.2394 25.2962C78.0474 25.4568 77.8585 25.6206 77.6665 25.7812C77.4745 25.9418 77.275 26.1037 77.0799 26.265C76.8847 26.4262 76.7078 26.59 76.5101 26.7362C76.2592 26.9207 76.0502 27.1509 75.7898 27.3222C75.6705 27.4124 75.5581 27.5114 75.4535 27.6184C75.4021 27.6648 75.3525 27.7138 75.2985 27.7577C75.1567 27.875 75.0118 27.9892 74.8694 28.1066C74.7602 28.1963 74.6535 28.2904 74.545 28.3814C74.4584 28.4535 74.3567 28.5113 74.289 28.5991C74.2381 28.6681 74.1635 28.6819 74.1083 28.7359C73.9702 28.8733 73.8209 28.9988 73.6741 29.1262C73.6358 29.1594 73.5875 29.1814 73.5486 29.2134C73.3804 29.3508 73.2135 29.4901 73.0278 29.6438C73.0203 29.5811 73.009 29.5258 73.0083 29.4719C73.0039 29.1318 73.0008 28.7924 73.0008 28.4523C73.0008 26.9255 73.0008 25.3987 73.0008 23.8719C73.0008 23.7364 73.0272 23.6429 73.1602 23.5676C73.2932 23.4923 73.3905 23.3724 73.5047 23.2727C73.6189 23.1729 73.7155 23.0882 73.8234 22.9991C73.9094 22.9276 73.9997 22.8611 74.0863 22.7902C74.1942 22.6998 74.2996 22.6063 74.4076 22.5153C74.4973 22.4394 74.5883 22.3654 74.6792 22.2901C74.7872 22.1997 74.8951 22.1087 75.0036 22.0196C75.0852 21.9519 75.1687 21.8873 75.2496 21.8195C75.3613 21.726 75.4698 21.6313 75.5815 21.5365C75.6725 21.46 75.766 21.3872 75.8582 21.3125L76.0314 21.1688C76.1663 21.0559 76.3012 20.9436 76.4355 20.83C76.5434 20.739 76.6494 20.6418 76.7586 20.5539C76.8439 20.483 76.933 20.4165 77.0184 20.3456C77.1269 20.2553 77.2323 20.1618 77.3403 20.0708C77.4189 20.0039 77.4984 19.9378 77.5787 19.8725C77.6634 19.8035 77.7512 19.737 77.8347 19.6667C77.9602 19.56 78.0857 19.4496 78.2112 19.3429C78.2739 19.2909 78.3367 19.2444 78.3994 19.193C78.5324 19.0819 78.6629 18.969 78.796 18.8579C78.9026 18.7688 79.0112 18.6829 79.1185 18.5944C79.1931 18.5317 79.2659 18.4689 79.3406 18.4062C79.4152 18.3434 79.5112 18.2681 79.5953 18.1978C79.7208 18.0937 79.8425 17.9877 79.9661 17.8841C80.0289 17.8295 80.0967 17.7775 80.1607 17.7229C80.2956 17.608 80.4298 17.492 80.566 17.3778C80.6287 17.3257 80.6915 17.2799 80.7542 17.2278C80.8835 17.118 81.0102 17.0044 81.1401 16.8946C81.2029 16.8438 81.2656 16.798 81.3283 16.7472C81.4673 16.6441 81.5989 16.5315 81.7224 16.4102C81.7851 16.3444 81.8679 16.3349 81.9288 16.2622C82.033 16.1367 82.1798 16.0469 82.3091 15.9403C82.4207 15.848 82.5293 15.752 82.6403 15.6586C82.7225 15.5895 82.806 15.5211 82.8913 15.4553C82.9767 15.3894 83.0714 15.3254 83.1586 15.2576C83.1832 15.2339 83.2055 15.2078 83.2251 15.1798L83.7898 15.6523C83.9392 15.7778 84.0854 15.9064 84.2391 16.0288C84.502 16.2339 84.7592 16.4473 85.0096 16.6644C85.2223 16.8482 85.4639 16.9988 85.6546 17.2109C85.7625 17.3307 85.9056 17.4173 86.0349 17.5202C86.1641 17.6231 86.2934 17.7304 86.4214 17.8371C86.5293 17.9262 86.6359 18.0178 86.7432 18.1081L87.003 18.3252C87.1109 18.4162 87.2182 18.5084 87.3268 18.5988C87.4152 18.6735 87.5025 18.75 87.5947 18.8197C87.7014 18.9 87.808 18.9853 87.9511 18.9903C88.0295 18.9903 88.1086 18.9903 88.1857 18.996C88.315 19.0028 88.4422 18.9614 88.5428 18.8799C88.6557 18.7996 88.7555 18.7011 88.8621 18.612C88.9977 18.4984 89.1307 18.3811 89.2706 18.2731C89.4827 18.11 89.6659 17.9098 89.8799 17.7555C90.1578 17.5553 90.3963 17.3088 90.6818 17.1199C90.758 17.0617 90.8305 16.9989 90.8988 16.9317C91.0086 16.8363 91.1191 16.7434 91.2314 16.6487C91.3218 16.5734 91.4196 16.5031 91.5075 16.4272C91.6474 16.3086 91.7836 16.1856 91.9235 16.0683C92.15 15.88 92.3997 15.7169 92.6011 15.496C92.6777 15.412 92.7856 15.3568 92.8759 15.2846C93.0102 15.1767 93.1414 15.065 93.2744 14.9558C93.3848 14.8648 93.5028 14.782 93.6057 14.6835C93.7788 14.5166 93.9872 14.3949 94.1559 14.2217C94.2778 14.1098 94.406 14.0051 94.5399 13.908C94.6692 13.8038 94.7985 13.7003 94.9252 13.5942C95.0331 13.5045 95.1354 13.406 95.2427 13.3188C95.3343 13.2422 95.4309 13.172 95.5238 13.0967C95.5865 13.044 95.6493 12.9875 95.712 12.9348C95.7986 12.8639 95.9003 12.8093 95.9712 12.7233C96.0672 12.606 96.2039 12.5464 96.3081 12.4422C96.4279 12.3218 96.5679 12.222 96.699 12.1128C96.8025 12.0269 96.9073 11.9428 97.0083 11.8543C97.1966 11.6906 97.4049 11.555 97.5812 11.3768C97.6992 11.2576 97.8479 11.1685 97.9803 11.0631C98.0731 10.9891 98.1622 10.9106 98.2519 10.8328C98.3078 10.7839 98.3611 10.7312 98.4188 10.6848C98.5236 10.6019 98.6347 10.5266 98.737 10.44C98.8217 10.3679 98.8913 10.2769 98.9785 10.2079C99.1228 10.0937 99.2389 9.96883 99.2439 9.76868C99.2439 9.74232 99.2722 9.7166 99.2866 9.69087V1.56852C99.2678 1.51072 99.2525 1.45185 99.2408 1.39221Z" fill="white"/>
<path d="M16.6638 21.2348C16.2032 21.2348 15.7433 21.2386 15.2834 21.2348C15.059 21.2408 14.8346 21.2271 14.6126 21.194C14.4162 21.157 14.2198 21.1601 14.0241 21.1357C13.9791 21.1265 13.9352 21.1128 13.8929 21.0949C13.855 21.0794 13.816 21.0668 13.7762 21.0572C13.6746 21.0422 13.5648 21.0572 13.4832 20.9731C13.4776 20.9669 13.4638 20.9681 13.4537 20.9662C13.3516 20.9584 13.2525 20.9278 13.1638 20.8765C13.0843 20.8324 13.0002 20.7973 12.9129 20.7717C12.7209 20.6996 12.559 20.5791 12.3808 20.4862C12.2069 20.3926 12.0435 20.2807 11.8933 20.1524C11.7087 20.0115 11.5568 19.8323 11.4478 19.6273C11.3992 19.542 11.346 19.4595 11.2884 19.38C11.277 19.357 11.2698 19.3322 11.2671 19.3066C11.2608 19.2765 11.2671 19.2339 11.2501 19.2157C11.1359 19.0996 11.1805 18.9509 11.1579 18.8153C11.1402 18.6504 11.1392 18.4842 11.1548 18.319C11.161 18.1383 11.2715 18.0367 11.3775 17.9281C11.4722 17.8302 11.6184 17.8164 11.7314 17.743C11.7715 17.7282 11.8147 17.7241 11.8569 17.7311C12.1656 17.7311 12.4737 17.7311 12.7824 17.7311C12.8555 17.7234 12.929 17.7416 12.99 17.7826C13.0108 17.7981 13.0348 17.8086 13.0603 17.8133C13.268 17.8553 13.4054 17.9877 13.5322 18.1484C13.6501 18.2983 13.7204 18.4721 13.8252 18.629C13.9024 18.7387 14.004 18.8291 14.122 18.8931C14.2286 18.9559 14.3403 19.0105 14.4514 19.0638C14.4852 19.0778 14.5214 19.0852 14.558 19.0858C14.7406 19.0996 14.9226 19.1115 15.1052 19.1234C15.1312 19.121 15.1574 19.1225 15.183 19.1278C15.3894 19.2138 15.6059 19.1793 15.8186 19.1818C16.5295 19.1887 17.2404 19.1849 17.9519 19.1993C18.1544 19.1972 18.3542 19.1521 18.538 19.0669C18.6245 19.0318 18.7032 18.9799 18.7694 18.914C18.8357 18.8482 18.8882 18.7699 18.9238 18.6836C18.9709 18.5675 19.0098 18.4527 18.9803 18.3397C18.9351 18.1647 18.8693 17.9909 18.6798 17.908C18.6389 17.8818 18.5995 17.8533 18.5618 17.8227C18.4067 17.7363 18.2439 17.6645 18.0755 17.6081C17.8478 17.5259 17.6112 17.4782 17.3853 17.4061C17.182 17.3433 16.9624 17.3584 16.7704 17.2549C16.7211 17.2386 16.6693 17.2307 16.6173 17.2317C16.5157 17.2197 16.4115 17.2317 16.3199 17.1601C16.2854 17.1325 16.2195 17.1419 16.1675 17.1369C16.0545 17.1262 15.9378 17.1419 15.838 17.0622C15.8136 17.0422 15.7684 17.0466 15.732 17.0434C15.6065 17.0315 15.481 17.0434 15.3718 16.9606C15.343 16.9393 15.2915 16.9468 15.2501 16.943C15.1573 16.9349 15.0619 16.943 14.9847 16.8696C14.9769 16.8627 14.9669 16.8587 14.9565 16.8583C14.8086 16.8427 14.6631 16.8098 14.5229 16.7604C14.3284 16.6977 14.1314 16.6494 13.9419 16.5722C13.9075 16.5608 13.8723 16.5522 13.8365 16.5465C13.7819 16.5358 13.7248 16.5396 13.6834 16.4837C13.6658 16.4599 13.6206 16.4542 13.5824 16.4499C13.5185 16.4361 13.4569 16.4137 13.3991 16.3833C13.2962 16.34 13.1902 16.2993 13.0854 16.261C12.9599 16.2158 12.8533 16.1424 12.7347 16.0916C12.5946 16.0307 12.4611 15.9556 12.3362 15.8676C12.1195 15.7145 11.924 15.5335 11.7546 15.3292C11.6551 15.2124 11.5629 15.0896 11.4785 14.9615C11.4396 14.8988 11.4616 14.8053 11.38 14.762C11.38 14.5989 11.2545 14.4684 11.2627 14.2983C11.2677 14.191 11.2294 14.0825 11.225 13.9739C11.2211 13.8545 11.2232 13.7349 11.2313 13.6157C11.2382 13.5065 11.2514 13.3979 11.2608 13.2894C11.2702 13.1808 11.2476 13.0779 11.3348 12.9951C11.3442 12.9863 11.3436 12.9656 11.3468 12.9506C11.3579 12.8558 11.3853 12.7637 11.4277 12.6782C11.4741 12.5942 11.4992 12.49 11.5532 12.4003C11.6304 12.2748 11.6937 12.1386 11.8086 12.0357C11.9234 11.9328 12.0282 11.8149 12.1348 11.7013C12.2363 11.5976 12.3552 11.5126 12.4862 11.4503C12.5828 11.4007 12.6744 11.3386 12.7673 11.2872C12.8012 11.2742 12.8363 11.2645 12.8721 11.2583C12.9116 11.247 12.9511 11.2338 12.9894 11.2194C13.0277 11.205 13.0804 11.1811 13.1268 11.1642C13.1846 11.1435 13.2435 11.1259 13.3013 11.1058C13.3107 11.1027 13.3182 11.0883 13.3257 11.0883C13.5008 11.0927 13.6551 11.0036 13.8227 10.9797C13.977 10.9578 14.1364 10.9722 14.282 10.8994C14.3119 10.8897 14.3434 10.8856 14.3748 10.8875C14.6204 10.8775 14.8657 10.8683 15.1108 10.8599C15.2245 10.8576 15.3377 10.845 15.449 10.8222C15.5933 10.7902 15.7496 10.8103 15.9008 10.8178C16.0087 10.8235 16.116 10.8561 16.2233 10.858C16.8451 10.8699 17.4669 10.8756 18.0893 10.8844C18.2045 10.8778 18.3194 10.8994 18.4244 10.9471C18.4688 10.9625 18.5155 10.9702 18.5624 10.9697C18.6848 10.9854 18.8134 10.9697 18.9213 11.0544C18.9483 11.077 19.0029 11.0626 19.0431 11.0738C19.0954 11.0901 19.1467 11.1094 19.1968 11.1316C19.2112 11.1372 19.2244 11.1548 19.2369 11.1535C19.38 11.1341 19.4816 11.2414 19.6084 11.2753C19.7037 11.3122 19.7941 11.3606 19.8776 11.4196C19.8907 11.4271 19.9008 11.4409 19.9146 11.4459C20.2013 11.5526 20.4354 11.7402 20.6675 11.936C20.8219 12.0671 20.9769 12.1938 21.0672 12.3833C21.1058 12.4464 21.1517 12.5048 21.204 12.5571C21.2071 12.5609 21.2147 12.5628 21.2159 12.5666C21.2567 12.6801 21.2987 12.7931 21.3376 12.9073C21.3471 12.9361 21.3376 12.9769 21.3533 12.9989C21.4613 13.1419 21.4255 13.3082 21.4343 13.4669C21.4343 13.5247 21.4343 13.5824 21.4343 13.6395C21.4274 13.8961 21.3088 14.0787 21.0892 14.2149C20.9166 14.3222 20.7322 14.3366 20.5471 14.3535C20.3591 14.3677 20.1703 14.3677 19.9824 14.3535C19.8115 14.3398 19.6416 14.3163 19.4735 14.2833C19.4333 14.2764 19.4001 14.2324 19.3618 14.2086C19.1265 14.063 19.1303 14.0605 18.9853 13.8509C18.9056 13.7368 18.8598 13.6037 18.7839 13.492C18.7091 13.3903 18.6189 13.3007 18.5166 13.2266C18.4144 13.1566 18.3075 13.0937 18.1966 13.0384C18.188 13.0325 18.1781 13.0288 18.1678 13.0277C17.9544 13.0277 17.7649 12.9123 17.5441 12.9179C16.975 12.9311 16.4046 12.9179 15.8349 12.9135C15.6216 12.9135 15.4076 12.8828 15.1943 12.8859C14.9911 12.881 14.788 12.8987 14.5888 12.9386C14.3937 12.9865 14.2184 13.0937 14.0868 13.2455C14.0136 13.3381 13.9754 13.4537 13.9789 13.5717C13.9758 13.6138 13.9789 13.6558 13.9789 13.6972C13.9576 13.9482 14.1119 14.0862 14.2989 14.2036C14.3949 14.2685 14.4961 14.3256 14.6013 14.3742C14.7218 14.4244 14.8523 14.4533 14.9778 14.4928C15.0211 14.5066 15.0631 14.5255 15.1064 14.5399C15.1497 14.5543 15.2049 14.5694 15.2539 14.5851L15.4716 14.656C15.481 14.656 15.4886 14.6685 15.498 14.6704L16.057 14.7821C16.1087 14.784 16.1597 14.795 16.2076 14.8147C16.2873 14.8668 16.3739 14.8662 16.4586 14.8775C16.5433 14.8888 16.6387 14.9195 16.7284 14.9402C16.7435 14.944 16.7573 14.9534 16.7723 14.9559C17.017 14.9992 17.2624 15.04 17.5071 15.0814C17.5561 15.0932 17.6043 15.1081 17.6514 15.1259C17.6664 15.1309 17.6796 15.1454 17.694 15.1448C17.8992 15.1416 18.0805 15.2527 18.2813 15.2702C18.3642 15.2765 18.4507 15.2702 18.5135 15.3411C18.517 15.345 18.5212 15.3482 18.526 15.3503C18.5307 15.3525 18.5359 15.3536 18.5411 15.3537C18.7293 15.3292 18.8849 15.4635 19.0682 15.4679C19.1122 15.4759 19.1546 15.4912 19.1936 15.5131C19.2219 15.5244 19.2476 15.5407 19.2765 15.5495C19.402 15.5896 19.5306 15.6235 19.6529 15.6674C19.7307 15.6927 19.8046 15.7286 19.8725 15.7741C20.0043 15.8695 20.1599 15.919 20.2936 16.0169C20.3984 16.0928 20.5163 16.16 20.6224 16.2397C20.7675 16.345 20.9058 16.4594 21.0365 16.5822C21.1348 16.6651 21.2183 16.7642 21.2831 16.8753C21.3307 16.9738 21.4085 17.0509 21.4456 17.1608C21.4889 17.2678 21.5403 17.3714 21.5993 17.4707C21.6104 17.4886 21.618 17.5084 21.6219 17.5291C21.6514 17.8284 21.7674 18.117 21.7254 18.4244C21.7249 18.4504 21.7217 18.4763 21.716 18.5016C21.6576 18.676 21.6533 18.8593 21.6206 19.0381C21.5968 19.1818 21.5152 19.3142 21.4675 19.4547C21.4098 19.6007 21.3348 19.7393 21.2442 19.8676C21.1718 19.9713 21.0925 20.07 21.007 20.1631C20.921 20.2415 20.8388 20.3237 20.751 20.3997C20.6917 20.4514 20.6288 20.4988 20.5627 20.5415C20.4669 20.6041 20.3678 20.6617 20.266 20.714C20.1618 20.7655 20.0507 20.8044 19.9428 20.8489C19.9108 20.8621 19.8801 20.8765 19.8468 20.8916C19.8286 20.901 19.8129 20.9186 19.7935 20.9229C19.6304 20.9631 19.4672 21.0064 19.3022 21.0384C19.2012 21.0579 19.097 21.0472 19.0016 21.1093C18.949 21.1315 18.8916 21.1401 18.8347 21.1344C18.6265 21.1409 18.4193 21.1657 18.2155 21.2084C18.0397 21.2339 17.862 21.2428 17.6846 21.2348C17.3452 21.2379 17.0051 21.2348 16.6656 21.2348H16.6638Z" fill="white"/>
<path d="M46.0838 16.0527C46.0838 16.3351 46.0838 16.6174 46.0838 16.8991C46.0759 16.9816 46.0612 17.0632 46.0399 17.1432C46.0279 17.2097 46.0123 17.2756 46.0047 17.3428C45.989 17.4908 46.011 17.6446 45.9225 17.782C45.9061 17.826 45.8995 17.8731 45.9031 17.92C45.8962 17.9972 45.9031 18.0756 45.8366 18.1371C45.8193 18.1631 45.8101 18.1937 45.8102 18.225C45.7996 18.3009 45.8046 18.3793 45.7368 18.4395C45.7149 18.459 45.723 18.5092 45.7111 18.5431C45.6923 18.5945 45.6678 18.6447 45.6483 18.6949C45.6402 18.7131 45.6289 18.7294 45.6214 18.7482C45.5317 18.9855 45.4099 19.2092 45.2593 19.4133C45.1905 19.5207 45.1142 19.623 45.0309 19.7195C44.913 19.8388 44.795 19.9573 44.6802 20.0791C44.5331 20.2416 44.3574 20.3758 44.1619 20.475C44.1205 20.5861 43.9868 20.5547 43.9159 20.6381C43.8588 20.7053 43.744 20.7216 43.6574 20.7636C43.5539 20.8151 43.4529 20.8722 43.35 20.9255C43.3313 20.9339 43.3117 20.9402 43.2916 20.9443C43.2766 20.9481 43.2578 20.9443 43.2452 20.9519C43.0978 21.0359 42.9158 21.0215 42.7715 21.115C42.7634 21.1215 42.7543 21.1266 42.7445 21.1301C42.5563 21.1677 42.3724 21.2079 42.1854 21.2399C42.0989 21.2543 42.0098 21.243 41.9345 21.3057C41.897 21.3238 41.8554 21.3314 41.814 21.3277C41.6835 21.3346 41.553 21.3371 41.4225 21.3428C41.3302 21.3471 41.2342 21.3277 41.1533 21.398C41.1298 21.4098 41.1033 21.414 41.0774 21.4099H39.5828C39.5673 21.4124 39.5514 21.4114 39.5363 21.4068C39.3368 21.2957 39.1172 21.3559 38.9089 21.3308C38.8215 21.3296 38.7356 21.3081 38.6579 21.2681C38.6027 21.2336 38.5174 21.2449 38.4446 21.2405C38.3618 21.2355 38.277 21.2405 38.2074 21.1777C38.1968 21.166 38.1823 21.1584 38.1666 21.1564C37.9891 21.1733 37.8441 21.0541 37.6734 21.0397C37.6391 21.0325 37.6062 21.0195 37.5762 21.0014C37.5486 20.9889 37.5216 20.9581 37.4965 20.9606C37.3578 20.9751 37.2694 20.8414 37.137 20.8421C37.0052 20.7216 36.832 20.6708 36.6802 20.5879C36.5434 20.5145 36.4292 20.4091 36.2905 20.3413C36.1892 20.2808 36.0976 20.2052 36.0189 20.1173C35.9021 20.0063 35.7886 19.8915 35.68 19.7722C35.5941 19.6775 35.5188 19.5721 35.4366 19.4742C35.3299 19.3487 35.2741 19.1881 35.1668 19.062C35.1191 19.0049 35.126 18.9246 35.0745 18.8568C35.0049 18.7646 34.9873 18.6328 34.9459 18.5186C34.9312 18.481 34.9142 18.4444 34.8951 18.4088C34.8882 18.395 34.8662 18.3837 34.8669 18.3737C34.8838 18.2118 34.7652 18.0857 34.7533 17.9294C34.7386 17.8328 34.7152 17.7377 34.6836 17.6452C34.6799 17.6295 34.6723 17.6151 34.6698 17.6C34.6341 17.349 34.5757 17.0981 34.5676 16.8439C34.5512 16.3326 34.5588 15.8199 34.5638 15.3079C34.5749 15.1945 34.5927 15.0817 34.6171 14.9704C34.6334 14.8449 34.6385 14.7194 34.6585 14.5939C34.673 14.5035 34.7037 14.4157 34.7251 14.326C34.7377 14.2754 34.7474 14.224 34.7539 14.1722C34.7512 14.0894 34.7731 14.0075 34.8167 13.937C34.8399 13.9075 34.8349 13.8573 34.8474 13.8177C34.8643 13.7657 34.8857 13.7148 34.9058 13.664C34.9139 13.6446 34.9334 13.6251 34.9315 13.6075C34.917 13.4695 35.0281 13.3754 35.057 13.2493C35.0789 13.1489 35.1787 13.0679 35.2145 12.9675C35.2673 12.8393 35.3386 12.7195 35.4259 12.6118C35.4849 12.5315 35.5464 12.4518 35.6141 12.3765C35.7202 12.2541 35.8024 12.1123 35.9392 12.0157C36.155 11.8613 36.3414 11.6687 36.5798 11.5413C36.7053 11.4736 36.8308 11.3983 36.9563 11.3349C37.0284 11.2998 37.1188 11.2866 37.1702 11.2389C37.2392 11.1762 37.3352 11.1919 37.3892 11.1454C37.5109 11.04 37.6904 11.1034 37.8008 10.9842C37.8146 10.9691 37.8523 10.9785 37.8767 10.9716C37.9558 10.9503 38.0336 10.9258 38.1114 10.9026C38.1259 10.8967 38.1411 10.8925 38.1566 10.89C38.427 10.8719 38.6786 10.747 38.9553 10.7589C39.0463 10.7627 39.1379 10.7231 39.2301 10.7144C39.4322 10.6955 39.6349 10.6736 39.8369 10.6717C40.2861 10.6673 40.736 10.6717 41.1853 10.678C41.263 10.6837 41.3401 10.695 41.4162 10.7119C41.5335 10.7294 41.6509 10.7514 41.7694 10.7639C41.9138 10.779 42.0618 10.7639 42.1949 10.8461C42.239 10.8621 42.286 10.8689 42.3329 10.8662C42.4301 10.8775 42.5299 10.8744 42.6152 10.9396C42.6478 10.9563 42.684 10.9647 42.7207 10.9641C42.8079 10.9766 42.897 10.9766 42.9716 11.0438C42.9905 11.062 43.0306 11.057 43.0601 11.0664C43.1072 11.0827 43.153 11.1021 43.1988 11.1203C43.2212 11.1334 43.245 11.1441 43.2697 11.1523C43.3486 11.1651 43.4242 11.1937 43.4918 11.2364C43.5717 11.2783 43.6538 11.3158 43.7378 11.3487C43.889 11.424 44.0295 11.5162 44.177 11.5997C44.3518 11.7109 44.5177 11.8355 44.6733 11.9724C44.8101 12.081 44.955 12.2027 45.0416 12.3733C45.0918 12.4725 45.1853 12.549 45.2518 12.6413C45.3224 12.7311 45.382 12.8291 45.4294 12.933C45.4507 12.9891 45.4813 13.0413 45.5197 13.0874C45.6076 13.1859 45.6113 13.3208 45.6816 13.4312C45.7349 13.5235 45.7732 13.6237 45.7952 13.728C45.8203 13.8322 45.8127 13.9451 45.8924 14.0317C45.8761 14.2475 46.0229 14.4326 46.0047 14.6535C45.9959 14.762 46.0562 14.8744 46.0675 14.9867C46.085 15.1523 46.0913 15.3199 46.0951 15.4886C46.0995 15.6769 46.0951 15.8651 46.0951 16.0533L46.0838 16.0527ZM43.3569 16.0264C43.3569 15.7967 43.3569 15.5664 43.3569 15.3362C43.3569 15.217 43.3625 15.0952 43.2866 14.9892C43.2743 14.9605 43.2683 14.9294 43.269 14.8982C43.254 14.7784 43.2879 14.6472 43.1812 14.5475C43.1699 14.5368 43.1705 14.5067 43.1724 14.4847C43.1881 14.3366 43.0865 14.2243 43.0419 14.0976C42.9829 13.9307 42.8681 13.7839 42.7709 13.6314C42.7219 13.5555 42.651 13.494 42.6014 13.4181C42.5186 13.2926 42.3843 13.2254 42.2739 13.1326C42.1793 13.0447 42.0676 12.9772 41.9458 12.9343C41.8203 12.8991 41.7167 12.7919 41.5737 12.8132C41.5658 12.8141 41.5578 12.8131 41.5503 12.8102C41.5429 12.8074 41.5363 12.8028 41.531 12.7969C41.4821 12.7222 41.4055 12.7391 41.334 12.7297C41.2468 12.7184 41.1602 12.7046 41.0736 12.6883C41.0049 12.6672 40.9346 12.6518 40.8634 12.6425C40.5133 12.6375 40.1632 12.6388 39.813 12.6425C39.7504 12.6388 39.6878 12.6494 39.6298 12.6733C39.5442 12.7115 39.4514 12.7312 39.3575 12.731C39.2948 12.7348 39.2132 12.7247 39.1756 12.7599C39.067 12.8609 38.9145 12.8226 38.7953 12.9092C38.6899 12.9864 38.5538 13.0271 38.4402 13.1081C38.2375 13.2518 38.0424 13.3999 37.9037 13.6101C37.8303 13.7211 37.7356 13.8265 37.6954 13.9489C37.659 14.0587 37.5498 14.1409 37.5699 14.2708C37.4444 14.3749 37.5128 14.5606 37.403 14.6717C37.3892 14.8599 37.3842 15.0482 37.3026 15.2213C37.2994 15.2369 37.2994 15.2529 37.3026 15.2684C37.3026 15.7904 37.3026 16.3131 37.3026 16.837C37.3067 16.8884 37.3166 16.9391 37.3321 16.9882C37.3484 17.051 37.3723 17.1137 37.3836 17.1796C37.3949 17.2455 37.3754 17.3377 37.408 17.3955C37.4587 17.4857 37.4881 17.5864 37.494 17.6897C37.494 17.713 37.521 17.7324 37.5323 17.7556C37.5498 17.7926 37.5655 17.8309 37.58 17.8692C37.6112 17.9741 37.6513 18.0761 37.6998 18.1741C37.781 18.3053 37.8731 18.4293 37.9752 18.545C38.085 18.6704 38.213 18.7834 38.3323 18.9013C38.4076 18.976 38.5105 18.9867 38.5832 19.067C38.6439 19.12 38.7171 19.1565 38.796 19.173C38.9434 19.2107 39.0695 19.3242 39.2352 19.2985C39.2653 19.2948 39.2979 19.328 39.333 19.3418C39.3648 19.3581 39.3989 19.3695 39.4341 19.3757C39.6781 19.3926 39.9229 19.4184 40.1676 19.419C40.4537 19.419 40.7404 19.3989 41.0272 19.3864C41.1527 19.3807 41.2781 19.4002 41.3836 19.3079C41.4021 19.2958 41.4246 19.2913 41.4463 19.2954C41.6063 19.318 41.7224 19.1843 41.8742 19.1774C42.0455 19.0419 42.2595 18.9804 42.4195 18.8141C42.5555 18.6869 42.6814 18.5493 42.7959 18.4025C42.856 18.3338 42.9076 18.2582 42.9497 18.1773C42.9823 18.0926 43.0419 18.0191 43.0632 17.9357C43.099 17.7977 43.2044 17.6791 43.1837 17.5253C43.1848 17.5148 43.1897 17.5049 43.1975 17.4977C43.2678 17.4281 43.2603 17.3371 43.269 17.2468C43.2692 17.1738 43.2813 17.1013 43.3048 17.0322C43.3505 16.9157 43.3702 16.7906 43.3625 16.6657C43.3569 16.4549 43.3569 16.241 43.3569 16.0264Z" fill="white"/>
<path d="M62.0549 14.9746C62.1584 14.9822 62.2431 14.9928 62.3234 14.9928C64.0012 14.9928 65.6796 14.9966 67.3574 14.9891C67.5064 14.9913 67.653 15.0267 67.7866 15.0926C67.8782 15.1346 67.941 15.2401 68.0156 15.3179C68.1129 15.4208 68.1135 15.5488 68.1116 15.6793C68.1116 15.9353 68.1116 16.1913 68.1116 16.4479C68.1116 16.6625 67.9899 16.8162 67.8249 16.9266C67.6461 17.0452 67.6367 17.0346 67.4064 17.0346H62.0674V19.0939C62.1474 19.1068 62.228 19.1154 62.309 19.1196C63.5689 19.1196 64.8286 19.1196 66.0881 19.1196C66.794 19.1196 67.4999 19.1196 68.2058 19.1196C68.4043 19.1108 68.5986 19.1781 68.7491 19.3078C68.8197 19.3736 68.8731 19.4557 68.9047 19.5469C69.012 19.8644 68.9675 20.1888 68.9675 20.5088C68.9675 20.7296 68.842 20.9053 68.677 21.0496C68.5295 21.1751 68.3457 21.1638 68.175 21.1971C68.1228 21.2018 68.0703 21.2018 68.0182 21.1971C65.446 21.1971 62.8735 21.1971 60.3005 21.1971C60.1182 21.1941 59.9366 21.1731 59.7584 21.1343C59.6752 21.1143 59.6012 21.0665 59.5488 20.9988C59.4865 20.9195 59.4345 20.8326 59.3938 20.7403C59.3154 20.547 59.3242 20.3525 59.3242 20.1555C59.3242 17.3638 59.3232 14.5722 59.3211 11.7809C59.3124 11.5891 59.3494 11.3979 59.429 11.2231C59.4811 11.1235 59.5614 11.0415 59.6599 10.9872C59.8789 10.8724 59.8845 10.883 60.1487 10.883C62.8467 10.883 65.5447 10.8814 68.2428 10.878C68.3917 10.8758 68.5384 10.9144 68.6669 10.9897C68.7739 11.0577 68.8606 11.1533 68.9179 11.2664C69.0064 11.4308 68.9932 11.5933 68.9976 11.7608C69.0014 11.9127 68.9901 12.0645 68.9976 12.2157C69.0127 12.4391 68.9135 12.6041 68.7611 12.7528C68.6469 12.8645 68.5251 12.9411 68.3563 12.9292C68.2785 12.9229 68.2001 12.9292 68.1217 12.9292H62.3309C62.0567 12.9292 62.0567 12.9292 62.0567 13.2084V14.9715L62.0549 14.9746Z" fill="white"/>
<path d="M50.2934 18.8912V19.1008C50.2934 19.5501 50.2934 20 50.2934 20.4492C50.2967 20.6529 50.2196 20.8497 50.0788 20.997C50.0014 21.0793 49.8995 21.1345 49.7883 21.1545C49.2945 21.2423 48.7982 21.1871 48.3031 21.1965C48.1782 21.1989 48.054 21.1754 47.9386 21.1275C47.8281 21.0712 47.7334 20.9881 47.6631 20.8859C47.5753 20.7686 47.5609 20.6431 47.5609 20.5057C47.5634 17.5357 47.5619 14.5669 47.5565 11.599C47.5529 11.4819 47.5789 11.3658 47.6321 11.2614C47.6853 11.157 47.764 11.0676 47.8608 11.0017C47.954 10.9272 48.069 10.8851 48.1883 10.8818C50.1899 10.8818 52.1921 10.8818 54.1936 10.8862C54.3024 10.895 54.4105 10.9103 54.5174 10.932C54.6517 10.949 54.7866 10.9628 54.9215 10.9753C55.0194 10.9847 55.1191 10.9753 55.2051 11.0443C55.2375 11.0606 55.2737 11.068 55.3099 11.0657C55.4078 11.0738 55.5082 11.0657 55.5903 11.1422C55.6123 11.1629 55.6587 11.1604 55.6945 11.1648C55.761 11.173 55.8325 11.1648 55.8765 11.2332C55.8815 11.2414 55.8934 11.2514 55.9009 11.2508C56.0302 11.2313 56.1099 11.343 56.2216 11.3763C56.3471 11.4139 56.4575 11.5118 56.5754 11.5808C56.8302 11.7302 57.0184 11.9573 57.2293 12.1549C57.3246 12.2447 57.3723 12.3827 57.457 12.4869C57.5638 12.6316 57.6501 12.7904 57.7136 12.9587C57.7701 13.0892 57.8611 13.2235 57.8479 13.3822C57.8437 13.4086 57.8498 13.4355 57.8649 13.4575C57.9502 13.5472 57.9276 13.6621 57.9427 13.7681C57.9533 13.834 57.9759 13.8974 57.986 13.9632C58.0103 14.0964 58.026 14.2309 58.033 14.3661C58.0368 14.7681 58.0341 15.1703 58.0249 15.5727C58.0132 15.6645 57.9945 15.7553 57.969 15.8443C57.9546 15.9316 57.9508 16.02 57.9345 16.1066C57.9201 16.1819 57.895 16.2547 57.8718 16.3281C57.8595 16.3616 57.8499 16.396 57.8429 16.431C57.8335 16.5038 57.8354 16.5785 57.772 16.6318C57.7604 16.6424 57.7533 16.657 57.7519 16.6726C57.7318 16.8721 57.6101 17.0315 57.5235 17.199C57.3941 17.4432 57.2175 17.6592 57.004 17.8346C56.8785 17.9388 56.7731 18.0661 56.6438 18.1634C56.5141 18.2519 56.3791 18.3325 56.2398 18.405C56.1143 18.4759 55.9693 18.4909 55.8539 18.5813C55.8288 18.6014 55.783 18.5932 55.7478 18.6032C55.6945 18.6189 55.6418 18.639 55.5897 18.6578C55.5803 18.6616 55.5734 18.6735 55.564 18.6754C55.3889 18.7149 55.2151 18.7639 55.0376 18.7896C54.8889 18.8109 54.737 18.8015 54.594 18.868C54.5389 18.8846 54.481 18.8897 54.4239 18.8831L50.5036 18.8906L50.2934 18.8912ZM50.3342 12.9305C50.2878 13.0829 50.279 16.6632 50.3242 16.8401H51.5226L53.4677 16.8332C53.5142 16.8407 53.5618 16.8357 53.6057 16.8188C53.7187 16.7429 53.8454 16.756 53.9678 16.7403C54.0092 16.7347 54.0631 16.7403 54.0889 16.7171C54.2012 16.6155 54.3662 16.6544 54.4829 16.554C54.5588 16.4881 54.6799 16.4762 54.7627 16.4153C54.9027 16.3115 55.0148 16.1746 55.089 16.0169C55.1436 15.9008 55.234 15.7891 55.222 15.6454C55.222 15.6229 55.2421 15.599 55.2503 15.5745C55.2705 15.5225 55.2861 15.4687 55.2967 15.4139C55.3076 15.3307 55.311 15.2467 55.3067 15.1629C55.2873 14.8128 55.3739 14.4539 55.2158 14.1163C55.2107 13.9231 55.0991 13.7725 54.9955 13.6282C54.9159 13.5034 54.8071 13.3999 54.6787 13.3264C54.4986 13.2398 54.3323 13.1018 54.114 13.1043C54.0981 13.1055 54.0823 13.101 54.0694 13.0917C53.996 12.9989 53.89 13.029 53.7952 13.0171C53.7005 13.0051 53.5994 12.9882 53.5016 12.9731C53.4113 12.9529 53.3196 12.9391 53.2274 12.9317C52.3125 12.9317 51.3984 12.9317 50.4835 12.9317L50.3342 12.9305Z" fill="white"/>
<path d="M28.6424 21.2349C28.1404 21.2349 27.6385 21.2349 27.1365 21.2349C27.0634 21.2389 26.9901 21.2312 26.9194 21.2123C26.7593 21.1639 26.5928 21.1404 26.4256 21.1427C26.3259 21.1506 26.2262 21.1269 26.1407 21.0749C26.113 21.0607 26.0822 21.0536 26.051 21.0542C25.9425 21.0442 25.8327 21.0467 25.7373 20.9714C25.7128 20.9519 25.6651 20.9626 25.6306 20.9526C25.5679 20.9344 25.5051 20.9118 25.4424 20.8898C25.4245 20.8804 25.4058 20.8726 25.3865 20.8666C25.2171 20.839 25.0785 20.7348 24.9222 20.6784C24.6995 20.5993 24.5225 20.4462 24.3142 20.3464C24.2317 20.2957 24.1563 20.2341 24.0902 20.1632C23.9754 20.0616 23.8606 19.9606 23.7514 19.8539C23.6887 19.7943 23.6441 19.7209 23.587 19.6575C23.4458 19.5038 23.3467 19.3206 23.2294 19.1505C23.1735 19.0539 23.1258 18.9527 23.0869 18.8481C23.0374 18.742 22.9847 18.6379 22.9357 18.5344C22.9213 18.5024 22.9144 18.4666 22.9025 18.4327C22.8824 18.3756 22.861 18.3191 22.8397 18.2627C22.8291 18.2448 22.8209 18.2256 22.8152 18.2056C22.8008 18.0801 22.8014 17.9471 22.718 17.8373C22.691 17.5129 22.5724 17.2004 22.5994 16.8679C22.6057 16.7838 22.5687 16.6972 22.553 16.6112C22.5431 16.5656 22.5372 16.5192 22.5354 16.4726C22.5354 16.1695 22.5354 15.8658 22.5354 15.5628C22.5409 15.5067 22.5523 15.4514 22.5693 15.3977C22.5833 15.3543 22.5938 15.3098 22.6007 15.2647C22.6082 15.1286 22.6113 14.993 22.6138 14.8569C22.6139 14.7686 22.6334 14.6814 22.6709 14.6015C22.6961 14.5278 22.7078 14.4503 22.7054 14.3725C22.7123 14.284 22.7054 14.1943 22.7738 14.1215C22.7815 14.1147 22.7866 14.1053 22.7883 14.0951C22.7694 13.927 22.8755 13.7915 22.9138 13.6377C22.9389 13.5143 22.9887 13.3971 23.0599 13.2933C23.1085 13.2162 23.1504 13.1352 23.1854 13.0511C23.2614 12.8912 23.354 12.7398 23.4615 12.5993C23.5381 12.5027 23.597 12.3891 23.688 12.3019C23.8562 12.14 23.998 11.9493 24.2101 11.8363C24.2577 11.8077 24.303 11.7754 24.3456 11.7397C24.4928 11.6187 24.6571 11.5201 24.8331 11.4473C24.9393 11.4 25.043 11.3472 25.1437 11.2892C25.1751 11.2735 25.2134 11.2735 25.2466 11.261C25.2799 11.2484 25.3175 11.2264 25.3533 11.2095C25.3799 11.196 25.4073 11.1842 25.4355 11.1744C25.4549 11.1681 25.4775 11.1744 25.4982 11.1656C25.5885 11.1303 25.6809 11.1008 25.7749 11.0771C25.8659 11.0595 25.9575 11.0633 26.0441 11.0106C26.0931 10.9811 26.1646 10.9893 26.2254 10.978C26.3472 10.9548 26.4683 10.9271 26.5906 10.9064C26.6778 10.8916 26.7658 10.8818 26.8541 10.877C27.0003 10.8688 27.1472 10.8713 27.2934 10.8613C27.412 10.8531 27.5299 10.8318 27.6479 10.818C27.6895 10.8127 27.7314 10.81 27.7734 10.8098C28.3745 10.8098 28.9758 10.8098 29.5773 10.8098C29.6333 10.8157 29.6887 10.8262 29.7429 10.8412C29.7885 10.8506 29.8346 10.8573 29.881 10.8613C30.0222 10.8694 30.1633 10.8694 30.3039 10.882C30.3802 10.894 30.4556 10.911 30.5298 10.9328C30.5963 10.9472 30.6622 10.9623 30.7293 10.9717C30.8209 10.9842 30.9175 10.9792 30.9947 11.0439C31.027 11.0607 31.063 11.0694 31.0995 11.069C31.1622 11.0771 31.225 11.0752 31.2702 11.1317C31.2809 11.1434 31.2957 11.1506 31.3116 11.1518C31.4496 11.1367 31.5393 11.266 31.6698 11.2697C31.7326 11.3726 31.8581 11.372 31.9528 11.4291C32.0752 11.505 32.2082 11.5703 32.3293 11.6531C32.53 11.7881 32.7189 11.9398 32.894 12.1068C33.0371 12.2454 33.1236 12.4205 33.2554 12.5648C33.3225 12.6388 33.3263 12.7675 33.3897 12.8478C33.4819 12.9657 33.4436 13.1276 33.5459 13.2387C33.5666 13.2613 33.5647 13.3071 33.5685 13.3428C33.5848 13.4966 33.5829 13.6484 33.6313 13.8028C33.6583 13.8686 33.6689 13.9399 33.6622 14.0108C33.6556 14.0816 33.6318 14.1497 33.593 14.2093C33.5807 14.2322 33.575 14.2581 33.5767 14.284C33.5767 14.4791 33.4349 14.5745 33.2993 14.6743C33.1638 14.774 33.0007 14.7954 32.8338 14.7929C32.51 14.7872 32.1856 14.7791 31.8618 14.7885C31.7094 14.7935 31.5939 14.722 31.4854 14.6479C31.327 14.5456 31.1987 14.4032 31.1133 14.2351C31.0397 14.1124 30.9749 13.9847 30.9194 13.853C30.9025 13.8028 30.851 13.7626 30.8209 13.7086C30.7215 13.5287 30.5825 13.3738 30.4143 13.2556C30.2744 13.1602 30.1426 13.0172 29.9475 13.0172C29.785 12.8992 29.5923 12.9281 29.4098 12.913C29.2272 12.898 29.0452 12.8936 28.8633 12.8886C28.7164 12.8848 28.5702 12.8842 28.424 12.8886C27.9848 12.9017 27.5456 12.918 27.1095 12.9337C27.0784 12.9299 27.0467 12.9335 27.0173 12.9444C26.9125 13.0153 26.7908 13.0071 26.6772 13.0366C26.5581 13.0768 26.4437 13.1296 26.3359 13.1941C26.2667 13.2265 26.1997 13.2632 26.1351 13.3039C25.9116 13.446 25.7376 13.6538 25.6369 13.8988C25.5873 14.0242 25.5271 14.1497 25.475 14.2752C25.4625 14.3095 25.4549 14.3454 25.4524 14.3819C25.4516 14.4755 25.4286 14.5675 25.3853 14.6504C25.3639 14.7036 25.3545 14.7608 25.3577 14.818C25.3414 15.0257 25.3533 15.2396 25.3075 15.4404C25.2447 15.7058 25.2686 15.9693 25.2686 16.2329C25.2686 16.4035 25.3018 16.5736 25.3175 16.7442C25.3332 16.9149 25.342 17.0981 25.3608 17.2744C25.3724 17.3386 25.3896 17.4016 25.4123 17.4627C25.4179 17.4828 25.4367 17.5022 25.4349 17.5204C25.4179 17.6923 25.5133 17.8379 25.5503 17.9966C25.5784 18.0993 25.6206 18.1975 25.6758 18.2884C25.7254 18.3756 25.7925 18.4534 25.8502 18.5356C25.9389 18.6424 26.0463 18.7321 26.1671 18.8004C26.2625 18.85 26.3522 18.9102 26.4469 18.9629C26.4754 18.9748 26.5054 18.9828 26.536 18.9868C26.5668 18.9937 26.6044 18.9868 26.6276 19.005C26.7638 19.1022 26.9307 19.0677 27.0756 19.1173C27.444 19.2384 27.8198 19.18 28.1925 19.1882C28.6474 19.1982 29.1023 19.1882 29.5572 19.1882C29.6863 19.1937 29.815 19.1702 29.9337 19.1191C30.0429 19.0683 30.1677 19.052 30.28 18.9937C30.4473 18.9065 30.6007 18.7948 30.7349 18.6624C30.8363 18.5619 30.9234 18.4481 30.9941 18.3242C31.0401 18.251 31.081 18.1747 31.1164 18.0958C31.2046 17.8584 31.3522 17.6476 31.545 17.4834C31.6412 17.4008 31.7559 17.3426 31.8794 17.314C32.2559 17.2286 32.6386 17.2732 33.0176 17.2669C33.2046 17.2692 33.3851 17.3356 33.529 17.4551C33.5833 17.4997 33.6236 17.5589 33.6451 17.6258C33.6783 17.7388 33.7705 17.8291 33.7636 17.9565C33.7561 18.1497 33.758 18.3436 33.7511 18.5362C33.7465 18.5774 33.7357 18.6176 33.7191 18.6555C33.7109 18.6799 33.6821 18.7025 33.6846 18.7239C33.7009 18.8926 33.5999 19.03 33.5635 19.1838C33.5389 19.2757 33.499 19.3629 33.4455 19.4417C33.3646 19.5671 33.2749 19.6876 33.182 19.8043C33.0755 19.9417 32.9524 20.0654 32.8156 20.1726C32.6301 20.3156 32.4374 20.449 32.2383 20.5723C32.0846 20.6683 31.9202 20.7417 31.7621 20.8233C31.6454 20.8829 31.5236 20.9751 31.3737 20.9595C31.2369 21.0743 31.0393 21.0134 30.8981 21.1232C30.8661 21.1477 30.8071 21.1395 30.7607 21.142C30.6193 21.1406 30.479 21.1662 30.3472 21.2173C30.2975 21.2337 30.2449 21.2397 30.1928 21.2349H28.6424Z" fill="white"/>
<path d="M3.70758 15.9073C3.6122 15.773 3.53189 15.623 3.41644 15.5076C3.2464 15.3375 3.14287 15.1167 2.96216 14.9548C2.88938 14.8921 2.84797 14.791 2.7871 14.7107C2.70679 14.6053 2.62083 14.5043 2.53612 14.397C2.44075 14.2765 2.34789 14.1542 2.25189 14.0331C2.08373 13.8191 1.91118 13.6089 1.74616 13.3918C1.58114 13.1747 1.42867 12.9689 1.25926 12.7713C1.07667 12.5586 0.93487 12.312 0.723419 12.12C0.634948 12.039 0.583497 11.9135 0.498791 11.8188C0.414085 11.7241 0.362007 11.6249 0.284203 11.5364C0.16185 11.3978 0.186321 11.2378 0.200125 11.0778C0.203917 11.0536 0.210226 11.0298 0.218948 11.0069C0.36138 10.8814 0.528282 10.8776 0.702713 10.8814C1.21032 10.887 1.7173 10.8814 2.22428 10.8814C2.3071 10.8814 2.39244 10.8732 2.46146 10.9372C2.47935 10.9479 2.49962 10.9539 2.52044 10.9548C2.77142 11.0056 2.96781 11.1468 3.15291 11.3256C3.33068 11.5061 3.49332 11.7008 3.63918 11.9079C3.70883 12.002 3.79542 12.0836 3.86695 12.1758C4.02256 12.3779 4.17063 12.5849 4.32687 12.7863C4.39589 12.8748 4.49252 12.9457 4.54773 13.0411C4.67824 13.2663 4.88907 13.427 5.0202 13.6522C5.0982 13.7684 5.1889 13.8755 5.29063 13.9716C5.30632 13.9885 5.37157 13.9923 5.38036 13.9797C5.47448 13.8411 5.61001 13.7369 5.69408 13.5882C5.75663 13.492 5.82671 13.401 5.90365 13.3159C5.99463 13.2017 6.08436 13.0875 6.17597 12.9746C6.35354 12.7556 6.53299 12.5385 6.70993 12.3189C6.76326 12.2524 6.80781 12.1783 6.85989 12.1106C7.0224 11.8991 7.17361 11.6814 7.35307 11.4831C7.47615 11.3365 7.62087 11.2096 7.78224 11.1066C7.88326 11.0439 7.99055 10.9535 8.12859 10.9655C8.40028 10.8306 8.6933 10.8939 8.9744 10.8877C9.36655 10.8789 9.75871 10.8908 10.1509 10.882C10.2764 10.882 10.3466 10.9674 10.4445 11.0075C10.464 11.0157 10.4746 11.0627 10.4753 11.0922C10.4863 11.1908 10.4844 11.2903 10.4696 11.3884C10.4419 11.4738 10.3973 11.5527 10.3385 11.6205C10.1923 11.8088 10.0423 11.9939 9.88608 12.1739C9.69471 12.3942 9.53283 12.637 9.34334 12.8597C9.19798 13.0175 9.0638 13.1853 8.94177 13.3617C8.78365 13.6127 8.57095 13.8172 8.40718 14.0626C8.25408 14.2928 8.05393 14.4911 7.87761 14.7063C7.79479 14.8074 7.72954 14.9234 7.64106 15.0201C7.47354 15.2008 7.36499 15.426 7.17801 15.5935C7.08765 15.6745 7.03746 15.8 6.96342 15.9135C7.14099 16.1319 7.32546 16.3528 7.49989 16.5761C7.65612 16.7775 7.79542 16.9915 7.95291 17.1923C8.1242 17.41 8.30993 17.6171 8.48561 17.8317C8.53957 17.8982 8.5791 17.976 8.62993 18.045C8.69706 18.1354 8.76859 18.2232 8.8395 18.3104C8.88342 18.3644 8.93236 18.4146 8.97502 18.4692C9.06161 18.579 9.1482 18.6888 9.22977 18.8023C9.38287 19.0182 9.56985 19.207 9.71291 19.4298C9.79699 19.5622 9.91746 19.6701 10.0097 19.7981C10.1383 19.9763 10.3065 20.1237 10.4075 20.3258C10.4574 20.4155 10.5253 20.4939 10.607 20.5561C10.6279 20.5747 10.6444 20.5978 10.6553 20.6236C10.6661 20.6495 10.6711 20.6774 10.6698 20.7054C10.6748 20.7835 10.6748 20.8619 10.6698 20.9401C10.6629 21.0593 10.5876 21.1201 10.4715 21.154C10.2299 21.2243 9.98522 21.1973 9.74114 21.2017C9.52718 21.2048 9.31134 21.1904 9.09863 21.2055C8.84012 21.2237 8.58977 21.1716 8.34004 21.1321C8.19921 21.0993 8.06768 21.0349 7.95542 20.9438C7.83997 20.8585 7.71636 20.7819 7.62663 20.659C7.47667 20.4525 7.30789 20.2599 7.14852 20.0597C7.0751 19.9675 7.00859 19.8715 6.93518 19.778C6.84483 19.6644 6.75259 19.5528 6.65722 19.4436C6.49471 19.2554 6.3435 19.0571 6.20107 18.8594C6.05863 18.6618 5.87291 18.483 5.74867 18.2596C5.66648 18.1128 5.52907 17.9961 5.41361 17.8681C5.33832 17.7852 5.2555 17.789 5.21095 17.8881C5.15385 18.0168 5.03652 18.0946 4.96687 18.2106C4.91772 18.2801 4.86472 18.3467 4.80812 18.4102C4.73346 18.5062 4.67322 18.6185 4.58287 18.695C4.49252 18.7716 4.48938 18.8701 4.40781 18.9379C4.21957 19.0947 4.12985 19.3357 3.9435 19.5026C3.86455 19.5874 3.79395 19.6797 3.73267 19.778C3.65487 19.8803 3.57832 19.9832 3.49926 20.0842C3.34052 20.29 3.18554 20.4965 3.01863 20.6985C2.96943 20.7478 2.91565 20.7924 2.85801 20.8315C2.71075 20.9442 2.55195 21.0409 2.38428 21.1201C2.37079 21.1283 2.35589 21.1338 2.34036 21.1364C2.14397 21.1584 1.94758 21.1935 1.75056 21.1992C1.34836 21.2092 0.945536 21.2067 0.542713 21.1992C0.408041 21.1969 0.274352 21.1758 0.145537 21.1364C0.107661 21.1287 0.0732053 21.1091 0.047071 21.0806C0.0209367 21.0521 0.00445422 21.0161 -3.2095e-05 20.9777C-0.00507761 20.8634 -0.00130172 20.7489 0.011262 20.6351C0.0302019 20.5792 0.0625118 20.5288 0.10538 20.4883C0.252831 20.307 0.402791 20.1281 0.55087 19.9474C0.596203 19.8985 0.635588 19.8444 0.668203 19.7862C0.726556 19.6607 0.840125 19.5854 0.912282 19.4725C1.0566 19.2478 1.26177 19.069 1.39228 18.8318C1.44409 18.757 1.50315 18.6874 1.5686 18.6241C1.63134 18.5526 1.69409 18.4805 1.75056 18.4064C1.83087 18.3048 1.91014 18.2021 1.98836 18.0983C2.1446 17.8925 2.29895 17.6848 2.45707 17.4797C2.51667 17.4019 2.58256 17.331 2.6453 17.2544C2.70805 17.1779 2.77079 17.075 2.84671 16.994C3.03495 16.7863 3.17738 16.5379 3.3744 16.3339C3.46426 16.2325 3.54806 16.1259 3.62538 16.0146C3.65487 15.9801 3.68059 15.9443 3.70758 15.9073Z" fill="white"/>
</g>
<defs>
<clipPath id="clip0_4876_7933">
<rect width="99.2916" height="32" fill="white"/>
</clipPath>
</defs>
</svg>
