<svg width="507" height="94" viewBox="0 0 507 94" fill="none" xmlns="http://www.w3.org/2000/svg">
<path opacity="0.05" d="M22.7159 1.81818H1.09517L28.7926 46.9091L0.566761 92H22.4077L40.902 61.2202H41.6065L60.1009 92H82.0298L53.892 46.9091L81.4134 1.81818H59.8807L41.6065 32.554H40.902L22.7159 1.81818ZM142.401 27.7543H160.675C160.411 11.6818 147.2 0.585224 127.121 0.585224C107.349 0.585224 92.8622 11.5057 92.9503 27.8864C92.9062 41.1847 102.286 48.8026 117.521 52.4574L127.341 54.9233C137.161 57.3011 142.621 60.1193 142.665 66.196C142.621 72.8011 136.368 77.2926 126.68 77.2926C116.773 77.2926 109.639 72.7131 109.023 63.6861H90.5724C91.0568 83.1932 105.016 93.277 126.901 93.277C148.918 93.277 161.864 82.7528 161.908 66.2401C161.864 51.2244 150.547 43.2543 134.871 39.7315L126.768 37.794C118.93 35.9886 112.369 33.0824 112.501 26.6094C112.501 20.7969 117.653 16.5256 126.989 16.5256C136.104 16.5256 141.696 20.6648 142.401 27.7543ZM254.302 33.3906C251.792 12.5625 236.028 0.585224 215.156 0.585224C191.333 0.585224 173.147 17.4062 173.147 46.9091C173.147 76.3239 191.025 93.233 215.156 93.233C238.274 93.233 252.233 77.8651 254.302 61.2642L235.015 61.1761C233.21 70.8196 225.636 76.3679 215.464 76.3679C201.77 76.3679 192.478 66.196 192.478 46.9091C192.478 28.1506 201.637 17.4503 215.596 17.4503C226.032 17.4503 233.562 23.483 235.015 33.3906H254.302ZM350.847 46.9091C350.847 17.4062 332.529 0.585224 308.618 0.585224C284.576 0.585224 266.39 17.4062 266.39 46.9091C266.39 76.2798 284.576 93.233 308.618 93.233C332.529 93.233 350.847 76.4119 350.847 46.9091ZM331.516 46.9091C331.516 66.0199 322.445 76.3679 308.618 76.3679C294.748 76.3679 285.721 66.0199 285.721 46.9091C285.721 27.7983 294.748 17.4503 308.618 17.4503C322.445 17.4503 331.516 27.7983 331.516 46.9091ZM364.971 92H384.038V62.7614H400.066C420.806 62.7614 432.871 50.3878 432.871 32.3778C432.871 14.456 421.026 1.81818 400.55 1.81818H364.971V92ZM384.038 47.4815V17.4062H396.896C407.904 17.4062 413.232 23.3949 413.232 32.3778C413.232 41.3168 407.904 47.4815 396.984 47.4815H384.038ZM445.256 92H506.199V76.2798H464.323V54.7472H502.897V39.027H464.323V17.5383H506.023V1.81818H445.256V92Z" fill="#4661E9"/>
</svg>
